  0
SECTION
  2
HEADER
  9
$ACADVER
  1
AC1024
  9
$ACADMAINTVER
 70
     6
  9
$DWGCODEPAGE
  3
ANSI_1252
  9
$INSBASE
 10
0.0
 20
0.0
 30
0.0
  9
$EXTMIN
 10
1.000000000000000E+20
 20
1.000000000000000E+20
 30
1.000000000000000E+20
  9
$EXTMAX
 10
-1.000000000000000E+20
 20
-1.000000000000000E+20
 30
-1.000000000000000E+20
  9
$LIMMIN
 10
0.0
 20
0.0
  9
$LIMMAX
 10
12.0
 20
9.0
  9
$ORTHOMODE
 70
     0
  9
$REGENMODE
 70
     1
  9
$FILLMODE
 70
     1
  9
$QTEXTMODE
 70
     0
  9
$MIRRTEXT
 70
     1
  9
$LTSCALE
 40
1.0
  9
$ATTMODE
 70
     1
  9
$TEXTSIZE
 40
0.2
  9
$TRACEWID
 40
0.05
  9
$TEXTSTYLE
  7
Standard
  9
$CLAYER
  8
0
  9
$CELTYPE
  6
ByLayer
  9
$CECOLOR
 62
   256
  9
$CELTSCALE
 40
1.0
  9
$DISPSILH
 70
     0
  9
$DIMSCALE
 40
1.0
  9
$DIMASZ
 40
0.18
  9
$DIMEXO
 40
0.0625
  9
$DIMDLI
 40
0.38
  9
$DIMRND
 40
0.0
  9
$DIMDLE
 40
0.0
  9
$DIMEXE
 40
0.18
  9
$DIMTP
 40
0.0
  9
$DIMTM
 40
0.0
  9
$DIMTXT
 40
0.18
  9
$DIMCEN
 40
0.09
  9
$DIMTSZ
 40
0.0
  9
$DIMTOL
 70
     0
  9
$DIMLIM
 70
     0
  9
$DIMTIH
 70
     1
  9
$DIMTOH
 70
     1
  9
$DIMSE1
 70
     0
  9
$DIMSE2
 70
     0
  9
$DIMTAD
 70
     0
  9
$DIMZIN
 70
     0
  9
$DIMBLK
  1

  9
$DIMASO
 70
     1
  9
$DIMSHO
 70
     1
  9
$DIMPOST
  1

  9
$DIMAPOST
  1

  9
$DIMALT
 70
     0
  9
$DIMALTD
 70
     2
  9
$DIMALTF
 40
25.4
  9
$DIMLFAC
 40
1.0
  9
$DIMTOFL
 70
     0
  9
$DIMTVP
 40
0.0
  9
$DIMTIX
 70
     0
  9
$DIMSOXD
 70
     0
  9
$DIMSAH
 70
     0
  9
$DIMBLK1
  1

  9
$DIMBLK2
  1

  9
$DIMSTYLE
  2
Standard
  9
$DIMCLRD
 70
     0
  9
$DIMCLRE
 70
     0
  9
$DIMCLRT
 70
     0
  9
$DIMTFAC
 40
1.0
  9
$DIMGAP
 40
0.09
  9
$DIMJUST
 70
     0
  9
$DIMSD1
 70
     0
  9
$DIMSD2
 70
     0
  9
$DIMTOLJ
 70
     1
  9
$DIMTZIN
 70
     0
  9
$DIMALTZ
 70
     0
  9
$DIMALTTZ
 70
     0
  9
$DIMUPT
 70
     0
  9
$DIMDEC
 70
     4
  9
$DIMTDEC
 70
     4
  9
$DIMALTU
 70
     2
  9
$DIMALTTD
 70
     2
  9
$DIMTXSTY
  7
Standard
  9
$DIMAUNIT
 70
     0
  9
$DIMADEC
 70
     0
  9
$DIMALTRND
 40
0.0
  9
$DIMAZIN
 70
     0
  9
$DIMDSEP
 70
    46
  9
$DIMATFIT
 70
     3
  9
$DIMFRAC
 70
     0
  9
$DIMLDRBLK
  1

  9
$DIMLUNIT
 70
     2
  9
$DIMLWD
 70
    -2
  9
$DIMLWE
 70
    -2
  9
$DIMTMOVE
 70
     0
  9
$DIMFXL
 40
1.0
  9
$DIMFXLON
 70
     0
  9
$DIMJOGANG
 40
0.7853981633974483
  9
$DIMTFILL
 70
     0
  9
$DIMTFILLCLR
 70
     0
  9
$DIMARCSYM
 70
     0
  9
$DIMLTYPE
  6

  9
$DIMLTEX1
  6

  9
$DIMLTEX2
  6

  9
$DIMTXTDIRECTION
 70
     0
  9
$LUNITS
 70
     2
  9
$LUPREC
 70
     4
  9
$SKETCHINC
 40
0.1
  9
$FILLETRAD
 40
0.5
  9
$AUNITS
 70
     0
  9
$AUPREC
 70
     0
  9
$MENU
  1
.
  9
$ELEVATION
 40
0.0
  9
$PELEVATION
 40
0.0
  9
$THICKNESS
 40
0.0
  9
$LIMCHECK
 70
     0
  9
$CHAMFERA
 40
0.5
  9
$CHAMFERB
 40
0.5
  9
$CHAMFERC
 40
1.0
  9
$CHAMFERD
 40
0.0
  9
$SKPOLY
 70
     0
  9
$TDCREATE
 40
2458523.672124074
  9
$TDUCREATE
 40
2458523.755457407
  9
$TDUPDATE
 40
2458523.672124132
  9
$TDUUPDATE
 40
2458523.755457465
  9
$TDINDWG
 40
0.0000000116
  9
$TDUSRTIMER
 40
0.0000000116
  9
$USRTIMER
 70
     1
  9
$ANGBASE
 50
0.0
  9
$ANGDIR
 70
     0
  9
$PDMODE
 70
     0
  9
$PDSIZE
 40
0.0
  9
$PLINEWID
 40
0.0
  9
$SPLFRAME
 70
     0
  9
$SPLINETYPE
 70
     6
  9
$SPLINESEGS
 70
     8
  9
$HANDSEED
  5
57
  9
$SURFTAB1
 70
     6
  9
$SURFTAB2
 70
     6
  9
$SURFTYPE
 70
     6
  9
$SURFU
 70
     6
  9
$SURFV
 70
     6
  9
$UCSBASE
  2

  9
$UCSNAME
  2

  9
$UCSORG
 10
0.0
 20
0.0
 30
0.0
  9
$UCSXDIR
 10
1.0
 20
0.0
 30
0.0
  9
$UCSYDIR
 10
0.0
 20
1.0
 30
0.0
  9
$UCSORTHOREF
  2

  9
$UCSORTHOVIEW
 70
     0
  9
$UCSORGTOP
 10
0.0
 20
0.0
 30
0.0
  9
$UCSORGBOTTOM
 10
0.0
 20
0.0
 30
0.0
  9
$UCSORGLEFT
 10
0.0
 20
0.0
 30
0.0
  9
$UCSORGRIGHT
 10
0.0
 20
0.0
 30
0.0
  9
$UCSORGFRONT
 10
0.0
 20
0.0
 30
0.0
  9
$UCSORGBACK
 10
0.0
 20
0.0
 30
0.0
  9
$PUCSBASE
  2

  9
$PUCSNAME
  2

  9
$PUCSORG
 10
0.0
 20
0.0
 30
0.0
  9
$PUCSXDIR
 10
1.0
 20
0.0
 30
0.0
  9
$PUCSYDIR
 10
0.0
 20
1.0
 30
0.0
  9
$PUCSORTHOREF
  2

  9
$PUCSORTHOVIEW
 70
     0
  9
$PUCSORGTOP
 10
0.0
 20
0.0
 30
0.0
  9
$PUCSORGBOTTOM
 10
0.0
 20
0.0
 30
0.0
  9
$PUCSORGLEFT
 10
0.0
 20
0.0
 30
0.0
  9
$PUCSORGRIGHT
 10
0.0
 20
0.0
 30
0.0
  9
$PUCSORGFRONT
 10
0.0
 20
0.0
 30
0.0
  9
$PUCSORGBACK
 10
0.0
 20
0.0
 30
0.0
  9
$USERI1
 70
     0
  9
$USERI2
 70
     0
  9
$USERI3
 70
     0
  9
$USERI4
 70
     0
  9
$USERI5
 70
     0
  9
$USERR1
 40
0.0
  9
$USERR2
 40
0.0
  9
$USERR3
 40
0.0
  9
$USERR4
 40
0.0
  9
$USERR5
 40
0.0
  9
$WORLDVIEW
 70
     1
  9
$SHADEDGE
 70
     3
  9
$SHADEDIF
 70
    70
  9
$TILEMODE
 70
     1
  9
$MAXACTVP
 70
    64
  9
$PINSBASE
 10
0.0
 20
0.0
 30
0.0
  9
$PLIMCHECK
 70
     0
  9
$PEXTMIN
 10
1.000000000000000E+20
 20
1.000000000000000E+20
 30
1.000000000000000E+20
  9
$PEXTMAX
 10
-1.000000000000000E+20
 20
-1.000000000000000E+20
 30
-1.000000000000000E+20
  9
$PLIMMIN
 10
0.0
 20
0.0
  9
$PLIMMAX
 10
12.0
 20
9.0
  9
$UNITMODE
 70
     0
  9
$VISRETAIN
 70
     1
  9
$PLINEGEN
 70
     0
  9
$PSLTSCALE
 70
     1
  9
$TREEDEPTH
 70
  3020
  9
$CMLSTYLE
  2
Standard
  9
$CMLJUST
 70
     0
  9
$CMLSCALE
 40
1.0
  9
$PROXYGRAPHICS
 70
     1
  9
$MEASUREMENT
 70
     0
  9
$CELWEIGHT
370
    -1
  9
$ENDCAPS
280
     0
  9
$JOINSTYLE
280
     0
  9
$LWDISPLAY
290
     1
  9
$INSUNITS
 70
     1
  9
$HYPERLINKBASE
  1

  9
$STYLESHEET
  1

  9
$XEDIT
290
     1
  9
$CEPSNTYPE
380
     0
  9
$PSTYLEMODE
290
     1
  9
$FINGERPRINTGUID
  2
{8D282654-7ED4-42A1-A4B6-6A0440649903}
  9
$VERSIONGUID
  2
{FAEB1C32-E019-11D5-929B-00C0DF256EC4}
  9
$EXTNAMES
290
     1
  9
$PSVPSCALE
 40
0.0
  9
$OLESTARTUP
290
     0
  9
$SORTENTS
280
   127
  9
$INDEXCTL
280
     0
  9
$HIDETEXT
280
     1
  9
$XCLIPFRAME
280
     2
  9
$HALOGAP
280
     0
  9
$OBSCOLOR
 70
   257
  9
$OBSLTYPE
280
     0
  9
$INTERSECTIONDISPLAY
280
     0
  9
$INTERSECTIONCOLOR
 70
   257
  9
$DIMASSOC
280
     2
  9
$PROJECTNAME
  1

  9
$CAMERADISPLAY
290
     0
  9
$LENSLENGTH
 40
50.0
  9
$CAMERAHEIGHT
 40
0.0
  9
$STEPSPERSEC
 40
2.0
  9
$STEPSIZE
 40
6.0
  9
$3DDWFPREC
 40
2.0
  9
$PSOLWIDTH
 40
0.25
  9
$PSOLHEIGHT
 40
4.0
  9
$LOFTANG1
 40
1.570796326794897
  9
$LOFTANG2
 40
1.570796326794897
  9
$LOFTMAG1
 40
0.0
  9
$LOFTMAG2
 40
0.0
  9
$LOFTPARAM
 70
     7
  9
$LOFTNORMALS
280
     1
  9
$LATITUDE
 40
37.795
  9
$LONGITUDE
 40
-122.394
  9
$NORTHDIRECTION
 40
0.0
  9
$TIMEZONE
 70
 -8000
  9
$LIGHTGLYPHDISPLAY
280
     1
  9
$TILEMODELIGHTSYNCH
280
     1
  9
$CMATERIAL
347
3C
  9
$SOLIDHIST
280
     1
  9
$SHOWHIST
280
     1
  9
$DWFFRAME
280
     2
  9
$DGNFRAME
280
     2
  9
$REALWORLDSCALE
290
     1
  9
$INTERFERECOLOR
 62
   256
  9
$CSHADOW
280
     0
  9
$SHADOWPLANELOCATION
 40
0.0
  0
ENDSEC
  0
SECTION
  2
CLASSES
  0
CLASS
  1
ACDBDICTIONARYWDFLT
  2
AcDbDictionaryWithDefault
  3
ObjectDBX Classes
 90
        0
 91
        4
280
     0
281
     0
  0
CLASS
  1
VISUALSTYLE
  2
AcDbVisualStyle
  3
ObjectDBX Classes
 90
     4095
 91
        4
280
     0
281
     0
  0
CLASS
  1
MATERIAL
  2
AcDbMaterial
  3
ObjectDBX Classes
 90
     1153
 91
        4
280
     0
281
     0
  0
CLASS
  1
SUN
  2
AcDbSun
  3
SCENEOE
 90
     1024
 91
        4
280
     0
281
     0
  0
ENDSEC
  0
SECTION
  2
TABLES
  0
TABLE
  2
VPORT
  5
8
330
0
100
AcDbSymbolTable
 70
     1
  0
VPORT
  5
29
330
8
100
AcDbSymbolTableRecord
100
AcDbViewportTableRecord
  2
*Active
 70
     0
 10
0.0
 20
0.0
 11
1.0
 21
1.0
 12
0.0
 22
0.0
 13
0.0
 23
0.0
 14
0.5
 24
0.5
 15
0.5
 25
0.5
 16
0.0
 26
0.0
 36
1.0
 17
30.0
 27
23.5
 37
0.0
 40
73.0
 41
0.821917808219178
 42
50.0
 43
0.0
 44
0.0
 50
0.0
 51
0.0
 71
     0
 72
   100
 73
     1
 74
     3
 75
     0
 76
     0
 77
     0
 78
     0
281
     0
 65
     1
110
0.0
120
0.0
130
0.0
111
1.0
121
0.0
131
0.0
112
0.0
122
1.0
132
0.0
 79
     0
146
0.0
 60
     3
 61
     5
292
     1
282
     1
141
0.0
142
0.0
 63
   250
361
3F
  0
ENDTAB
  0
TABLE
  2
LTYPE
  5
5
330
0
100
AcDbSymbolTable
 70
     1
  0
LTYPE
  5
14
330
5
100
AcDbSymbolTableRecord
100
AcDbLinetypeTableRecord
  2
ByBlock
 70
     0
  3

 72
    65
 73
     0
 40
0.0
  0
LTYPE
  5
15
330
5
100
AcDbSymbolTableRecord
100
AcDbLinetypeTableRecord
  2
ByLayer
 70
     0
  3

 72
    65
 73
     0
 40
0.0
  0
LTYPE
  5
16
330
5
100
AcDbSymbolTableRecord
100
AcDbLinetypeTableRecord
  2
Continuous
 70
     0
  3
Solid line
 72
    65
 73
     0
 40
0.0
  0
ENDTAB
  0
TABLE
  2
LAYER
  5
2
330
0
100
AcDbSymbolTable
 70
     2
  0
LAYER
  5
10
330
2
100
AcDbSymbolTableRecord
100
AcDbLayerTableRecord
  2
0
 70
     0
 62
     7
  6
Continuous
370
    -3
390
F
347
3E
  0
LAYER
  5
40
330
2
100
AcDbSymbolTableRecord
100
AcDbLayerTableRecord
  2
Camada 1
 70
     0
 62
     7
  6
Continuous
370
    -3
390
F
347
3E
  0
ENDTAB
  0
TABLE
  2
STYLE
  5
3
330
0
100
AcDbSymbolTable
 70
     1
  0
STYLE
  5
11
330
3
100
AcDbSymbolTableRecord
100
AcDbTextStyleTableRecord
  2
Standard
 70
     0
 40
0.0
 41
1.0
 50
0.0
 71
     0
 42
0.2
  3
txt
  4

  0
ENDTAB
  0
TABLE
  2
VIEW
  5
6
330
0
100
AcDbSymbolTable
 70
     0
  0
ENDTAB
  0
TABLE
  2
UCS
  5
7
330
0
100
AcDbSymbolTable
 70
     0
  0
ENDTAB
  0
TABLE
  2
APPID
  5
9
330
0
100
AcDbSymbolTable
 70
     1
  0
APPID
  5
12
330
9
100
AcDbSymbolTableRecord
100
AcDbRegAppTableRecord
  2
ACAD
 70
     0
  0
ENDTAB
  0
TABLE
  2
DIMSTYLE
  5
A
330
0
100
AcDbSymbolTable
 70
     1
100
AcDbDimStyleTable
  0
DIMSTYLE
105
27
330
A
100
AcDbSymbolTableRecord
100
AcDbDimStyleTableRecord
  2
Standard
 70
     0
178
     0
340
11
  0
ENDTAB
  0
TABLE
  2
BLOCK_RECORD
  5
1
330
0
100
AcDbSymbolTable
 70
     4
  0
BLOCK_RECORD
  5
1F
330
1
100
AcDbSymbolTableRecord
100
AcDbBlockTableRecord
  2
*Model_Space
340
22
 70
     0
280
     1
281
     0
  0
BLOCK_RECORD
  5
1B
330
1
100
AcDbSymbolTableRecord
100
AcDbBlockTableRecord
  2
*Paper_Space
340
1E
 70
     0
280
     1
281
     0
  0
BLOCK_RECORD
  5
23
330
1
100
AcDbSymbolTableRecord
100
AcDbBlockTableRecord
  2
*Paper_Space0
340
26
 70
     0
280
     1
281
     0
  0
BLOCK_RECORD
  5
41
330
1
100
AcDbSymbolTableRecord
100
AcDbBlockTableRecord
  2
block 2
340
0
102
{BLKREFS
331
42
102
}
 70
     0
280
     1
281
     0
  0
BLOCK_RECORD
  5
45
330
1
100
AcDbSymbolTableRecord
100
AcDbBlockTableRecord
  2
block 3
340
0
102
{BLKREFS
331
46
102
}
 70
     0
280
     1
281
     0
  0
BLOCK_RECORD
  5
4B
330
1
100
AcDbSymbolTableRecord
100
AcDbBlockTableRecord
  2
block 4
340
0
102
{BLKREFS
331
4C
102
}
 70
     0
280
     1
281
     0
  0
ENDTAB
  0
ENDSEC
  0
SECTION
  2
BLOCKS
  0
BLOCK
  5
20
330
1F
100
AcDbEntity
  8
0
100
AcDbBlockBegin
  2
*Model_Space
 70
     0
 10
0.0
 20
0.0
 30
0.0
  3
*Model_Space
  1

  0
ENDBLK
  5
21
330
1F
100
AcDbEntity
  8
0
100
AcDbBlockEnd
  0
BLOCK
  5
1C
330
1B
100
AcDbEntity
 67
     1
  8
0
100
AcDbBlockBegin
  2
*Paper_Space
 70
     0
 10
0.0
 20
0.0
 30
0.0
  3
*Paper_Space
  1

  0
ENDBLK
  5
1D
330
1B
100
AcDbEntity
 67
     1
  8
0
100
AcDbBlockEnd
  0
BLOCK
  5
24
330
23
100
AcDbEntity
  8
0
100
AcDbBlockBegin
  2
*Paper_Space0
 70
     0
 10
0.0
 20
0.0
 30
0.0
  3
*Paper_Space0
  1

  0
ENDBLK
  5
25
330
23
100
AcDbEntity
  8
0
100
AcDbBlockEnd
  0
BLOCK
  5
43
330
41
100
AcDbEntity
  8
0
100
AcDbBlockBegin
  2
block 2
 70
     0
 10
0.0
 20
0.0
 30
0.0
  3
block 2
  1

  0
ENDBLK
  5
44
330
41
100
AcDbEntity
  8
0
100
AcDbBlockEnd
  0
BLOCK
  5
47
330
45
100
AcDbEntity
  8
0
100
AcDbBlockBegin
  2
block 3
 70
     0
 10
0.0
 20
0.0
 30
0.0
  3
block 3
  1

  0
ENDBLK
  5
48
330
45
100
AcDbEntity
  8
0
100
AcDbBlockEnd
  0
BLOCK
  5
4D
330
4B
100
AcDbEntity
  8
0
100
AcDbBlockBegin
  2
block 4
 70
     0
 10
0.0
 20
0.0
 30
0.0
  3
block 4
  1

  0
SPLINE
  5
4F
330
4B
100
AcDbEntity
  8
Camada 1
370
     0
100
AcDbSpline
210
0.0
220
0.0
230
1.0
 70
    11
 71
     3
 72
   674
 73
   670
 74
     0
 42
0.0000000001
 43
0.0000000001
 12
1.0
 22
0.0
 32
0.0
 13
1.0
 23
0.0
 33
0.0
 40
0.0
 40
0.0
 40
0.0
 40
0.0
 40
1.0
 40
1.0
 40
1.0
 40
2.0
 40
2.0
 40
2.0
 40
3.0
 40
3.0
 40
3.0
 40
4.0
 40
4.0
 40
4.0
 40
5.0
 40
5.0
 40
5.0
 40
6.0
 40
6.0
 40
6.0
 40
7.0
 40
7.0
 40
7.0
 40
8.0
 40
8.0
 40
8.0
 40
9.0
 40
9.0
 40
9.0
 40
10.0
 40
10.0
 40
10.0
 40
11.0
 40
11.0
 40
11.0
 40
12.0
 40
12.0
 40
12.0
 40
13.0
 40
13.0
 40
13.0
 40
14.0
 40
14.0
 40
14.0
 40
15.0
 40
15.0
 40
15.0
 40
16.0
 40
16.0
 40
16.0
 40
17.0
 40
17.0
 40
17.0
 40
18.0
 40
18.0
 40
18.0
 40
19.0
 40
19.0
 40
19.0
 40
20.0
 40
20.0
 40
20.0
 40
21.0
 40
21.0
 40
21.0
 40
22.0
 40
22.0
 40
22.0
 40
23.0
 40
23.0
 40
23.0
 40
24.0
 40
24.0
 40
24.0
 40
25.0
 40
25.0
 40
25.0
 40
26.0
 40
26.0
 40
26.0
 40
27.0
 40
27.0
 40
27.0
 40
28.0
 40
28.0
 40
28.0
 40
29.0
 40
29.0
 40
29.0
 40
30.0
 40
30.0
 40
30.0
 40
31.0
 40
31.0
 40
31.0
 40
32.0
 40
32.0
 40
32.0
 40
33.0
 40
33.0
 40
33.0
 40
34.0
 40
34.0
 40
34.0
 40
35.0
 40
35.0
 40
35.0
 40
36.0
 40
36.0
 40
36.0
 40
37.0
 40
37.0
 40
37.0
 40
38.0
 40
38.0
 40
38.0
 40
39.0
 40
39.0
 40
39.0
 40
40.0
 40
40.0
 40
40.0
 40
41.0
 40
41.0
 40
41.0
 40
42.0
 40
42.0
 40
42.0
 40
43.0
 40
43.0
 40
43.0
 40
44.0
 40
44.0
 40
44.0
 40
45.0
 40
45.0
 40
45.0
 40
46.0
 40
46.0
 40
46.0
 40
47.0
 40
47.0
 40
47.0
 40
48.0
 40
48.0
 40
48.0
 40
49.0
 40
49.0
 40
49.0
 40
50.0
 40
50.0
 40
50.0
 40
51.0
 40
51.0
 40
51.0
 40
52.0
 40
52.0
 40
52.0
 40
53.0
 40
53.0
 40
53.0
 40
54.0
 40
54.0
 40
54.0
 40
55.0
 40
55.0
 40
55.0
 40
56.0
 40
56.0
 40
56.0
 40
57.0
 40
57.0
 40
57.0
 40
58.0
 40
58.0
 40
58.0
 40
59.0
 40
59.0
 40
59.0
 40
60.0
 40
60.0
 40
60.0
 40
61.0
 40
61.0
 40
61.0
 40
62.0
 40
62.0
 40
62.0
 40
63.0
 40
63.0
 40
63.0
 40
64.0
 40
64.0
 40
64.0
 40
65.0
 40
65.0
 40
65.0
 40
66.0
 40
66.0
 40
66.0
 40
67.0
 40
67.0
 40
67.0
 40
68.0
 40
68.0
 40
68.0
 40
69.0
 40
69.0
 40
69.0
 40
70.0
 40
70.0
 40
70.0
 40
71.0
 40
71.0
 40
71.0
 40
72.0
 40
72.0
 40
72.0
 40
73.0
 40
73.0
 40
73.0
 40
74.0
 40
74.0
 40
74.0
 40
75.0
 40
75.0
 40
75.0
 40
76.0
 40
76.0
 40
76.0
 40
77.0
 40
77.0
 40
77.0
 40
78.0
 40
78.0
 40
78.0
 40
79.0
 40
79.0
 40
79.0
 40
80.0
 40
80.0
 40
80.0
 40
81.0
 40
81.0
 40
81.0
 40
82.0
 40
82.0
 40
82.0
 40
83.0
 40
83.0
 40
83.0
 40
84.0
 40
84.0
 40
84.0
 40
85.0
 40
85.0
 40
85.0
 40
86.0
 40
86.0
 40
86.0
 40
87.0
 40
87.0
 40
87.0
 40
88.0
 40
88.0
 40
88.0
 40
89.0
 40
89.0
 40
89.0
 40
90.0
 40
90.0
 40
90.0
 40
91.0
 40
91.0
 40
91.0
 40
92.0
 40
92.0
 40
92.0
 40
93.0
 40
93.0
 40
93.0
 40
94.0
 40
94.0
 40
94.0
 40
95.0
 40
95.0
 40
95.0
 40
96.0
 40
96.0
 40
96.0
 40
97.0
 40
97.0
 40
97.0
 40
98.0
 40
98.0
 40
98.0
 40
99.0
 40
99.0
 40
99.0
 40
100.0
 40
100.0
 40
100.0
 40
101.0
 40
101.0
 40
101.0
 40
102.0
 40
102.0
 40
102.0
 40
103.0
 40
103.0
 40
103.0
 40
104.0
 40
104.0
 40
104.0
 40
105.0
 40
105.0
 40
105.0
 40
106.0
 40
106.0
 40
106.0
 40
107.0
 40
107.0
 40
107.0
 40
108.0
 40
108.0
 40
108.0
 40
109.0
 40
109.0
 40
109.0
 40
110.0
 40
110.0
 40
110.0
 40
111.0
 40
111.0
 40
111.0
 40
112.0
 40
112.0
 40
112.0
 40
113.0
 40
113.0
 40
113.0
 40
114.0
 40
114.0
 40
114.0
 40
115.0
 40
115.0
 40
115.0
 40
116.0
 40
116.0
 40
116.0
 40
117.0
 40
117.0
 40
117.0
 40
118.0
 40
118.0
 40
118.0
 40
119.0
 40
119.0
 40
119.0
 40
120.0
 40
120.0
 40
120.0
 40
121.0
 40
121.0
 40
121.0
 40
122.0
 40
122.0
 40
122.0
 40
123.0
 40
123.0
 40
123.0
 40
124.0
 40
124.0
 40
124.0
 40
125.0
 40
125.0
 40
125.0
 40
126.0
 40
126.0
 40
126.0
 40
127.0
 40
127.0
 40
127.0
 40
128.0
 40
128.0
 40
128.0
 40
129.0
 40
129.0
 40
129.0
 40
130.0
 40
130.0
 40
130.0
 40
131.0
 40
131.0
 40
131.0
 40
132.0
 40
132.0
 40
132.0
 40
133.0
 40
133.0
 40
133.0
 40
134.0
 40
134.0
 40
134.0
 40
135.0
 40
135.0
 40
135.0
 40
136.0
 40
136.0
 40
136.0
 40
137.0
 40
137.0
 40
137.0
 40
138.0
 40
138.0
 40
138.0
 40
139.0
 40
139.0
 40
139.0
 40
140.0
 40
140.0
 40
140.0
 40
141.0
 40
141.0
 40
141.0
 40
142.0
 40
142.0
 40
142.0
 40
143.0
 40
143.0
 40
143.0
 40
144.0
 40
144.0
 40
144.0
 40
145.0
 40
145.0
 40
145.0
 40
146.0
 40
146.0
 40
146.0
 40
147.0
 40
147.0
 40
147.0
 40
148.0
 40
148.0
 40
148.0
 40
149.0
 40
149.0
 40
149.0
 40
150.0
 40
150.0
 40
150.0
 40
151.0
 40
151.0
 40
151.0
 40
152.0
 40
152.0
 40
152.0
 40
153.0
 40
153.0
 40
153.0
 40
154.0
 40
154.0
 40
154.0
 40
155.0
 40
155.0
 40
155.0
 40
156.0
 40
156.0
 40
156.0
 40
157.0
 40
157.0
 40
157.0
 40
158.0
 40
158.0
 40
158.0
 40
159.0
 40
159.0
 40
159.0
 40
160.0
 40
160.0
 40
160.0
 40
161.0
 40
161.0
 40
161.0
 40
162.0
 40
162.0
 40
162.0
 40
163.0
 40
163.0
 40
163.0
 40
164.0
 40
164.0
 40
164.0
 40
165.0
 40
165.0
 40
165.0
 40
166.0
 40
166.0
 40
166.0
 40
167.0
 40
167.0
 40
167.0
 40
168.0
 40
168.0
 40
168.0
 40
169.0
 40
169.0
 40
169.0
 40
170.0
 40
170.0
 40
170.0
 40
171.0
 40
171.0
 40
171.0
 40
172.0
 40
172.0
 40
172.0
 40
173.0
 40
173.0
 40
173.0
 40
174.0
 40
174.0
 40
174.0
 40
175.0
 40
175.0
 40
175.0
 40
176.0
 40
176.0
 40
176.0
 40
177.0
 40
177.0
 40
177.0
 40
178.0
 40
178.0
 40
178.0
 40
179.0
 40
179.0
 40
179.0
 40
180.0
 40
180.0
 40
180.0
 40
181.0
 40
181.0
 40
181.0
 40
182.0
 40
182.0
 40
182.0
 40
183.0
 40
183.0
 40
183.0
 40
184.0
 40
184.0
 40
184.0
 40
185.0
 40
185.0
 40
185.0
 40
186.0
 40
186.0
 40
186.0
 40
187.0
 40
187.0
 40
187.0
 40
188.0
 40
188.0
 40
188.0
 40
189.0
 40
189.0
 40
189.0
 40
190.0
 40
190.0
 40
190.0
 40
191.0
 40
191.0
 40
191.0
 40
192.0
 40
192.0
 40
192.0
 40
193.0
 40
193.0
 40
193.0
 40
194.0
 40
194.0
 40
194.0
 40
195.0
 40
195.0
 40
195.0
 40
196.0
 40
196.0
 40
196.0
 40
197.0
 40
197.0
 40
197.0
 40
198.0
 40
198.0
 40
198.0
 40
199.0
 40
199.0
 40
199.0
 40
200.0
 40
200.0
 40
200.0
 40
201.0
 40
201.0
 40
201.0
 40
202.0
 40
202.0
 40
202.0
 40
203.0
 40
203.0
 40
203.0
 40
204.0
 40
204.0
 40
204.0
 40
205.0
 40
205.0
 40
205.0
 40
206.0
 40
206.0
 40
206.0
 40
207.0
 40
207.0
 40
207.0
 40
208.0
 40
208.0
 40
208.0
 40
209.0
 40
209.0
 40
209.0
 40
210.0
 40
210.0
 40
210.0
 40
211.0
 40
211.0
 40
211.0
 40
212.0
 40
212.0
 40
212.0
 40
213.0
 40
213.0
 40
213.0
 40
214.0
 40
214.0
 40
214.0
 40
215.0
 40
215.0
 40
215.0
 40
216.0
 40
216.0
 40
216.0
 40
217.0
 40
217.0
 40
217.0
 40
218.0
 40
218.0
 40
218.0
 40
219.0
 40
219.0
 40
219.0
 40
220.0
 40
220.0
 40
220.0
 40
221.0
 40
221.0
 40
221.0
 40
222.0
 40
222.0
 40
222.0
 40
223.0
 40
223.0
 40
223.0
 40
223.0
 10
4.926736154053287
 20
38.29407758657726
 30
0.0
 10
4.903474584497417
 20
37.99167618407046
 30
0.0
 10
5.043044112755524
 20
37.77069177242265
 30
0.0
 10
5.205875210568593
 20
37.53807585502182
 30
0.0
 10
5.322183169271739
 20
37.36361391697028
 30
0.0
 10
5.461752697528937
 20
37.16589074211697
 30
0.0
 10
5.485014267083898
 20
36.96816756726912
 30
0.0
 10
5.519906676879145
 20
36.64250492796418
 30
0.0
 10
5.694368504011436
 20
36.56108971181766
 30
0.0
 10
5.961876942128583
 20
36.50293573246472
 30
0.0
 10
6.264277679121733
 20
36.4331502473533
 30
0.0
 10
6.508524436761945
 20
36.27031981505934
 30
0.0
 10
6.58993987474787
 20
35.9446571757544
 30
0.0
 10
6.671355534574104
 20
35.64225577323941
 30
0.0
 10
6.834186632390811
 20
35.56084055709471
 30
0.0
 10
7.136587147541832
 20
35.67714851579785
 30
0.0
 10
7.729757559446625
 20
35.89813292743838
 30
0.0
 10
8.322928415033857
 20
36.14238035060134
 30
0.0
 10
8.91609882693865
 20
36.37499626800673
 30
0.0
 10
8.904468208541402
 20
36.30521078289985
 30
0.0
 10
8.881206528063558
 20
36.20053432995337
 30
0.0
 10
8.86957546598569
 20
36.09585787700962
 30
0.0
 10
8.823052105034549
 20
35.67714851579785
 30
0.0
 10
8.753267507285273
 20
35.2584409293022
 30
0.0
 10
8.76489812568434
 20
34.8513630738471
 30
0.0
 10
8.776528744080679
 20
34.42102398159659
 30
0.0
 10
9.044037404038136
 20
34.15351532163913
 30
0.0
 10
9.439484197416277
 20
34.15351532163913
 30
0.0
 10
10.20711654737352
 20
34.15351532163913
 30
0.0
 10
10.96311827893624
 20
34.16514682739853
 30
0.0
 10
11.73075151625108
 20
34.18840806419394
 30
0.0
 10
12.10293662915228
 20
34.20003956994788
 30
0.0
 10
12.42859926845904
 20
34.33960876544825
 30
0.0
 10
12.68447642265983
 20
34.63037866219929
 30
0.0
 10
12.7193691652119
 20
34.66527140475591
 30
0.0
 10
12.76589163880635
 20
34.72342538410794
 30
0.0
 10
12.80078438136115
 20
34.71179387834854
 30
0.0
 10
13.25438559776831
 20
34.63037866219929
 30
0.0
 10
13.49863213357094
 20
34.94440979575302
 30
0.0
 10
13.77777141192473
 20
35.21191845571047
 30
0.0
 10
14.09180254547664
 20
35.5143198582191
 30
0.0
 10
14.45235792733911
 20
35.7236727641066
 30
0.0
 10
14.91758976214351
 20
35.71204303306786
 30
0.0
 10
15.2083596588991
 20
35.7004115273121
 30
0.0
 10
15.51076017404921
 20
35.79345824921347
 30
0.0
 10
15.84805343175594
 20
35.83998249752858
 30
0.0
 10
15.84805343175594
 20
35.83998249752858
 30
0.0
 10
15.8945767927089
 20
35.78182851817655
 30
0.0
 10
15.92946864790338
 20
35.71204303306786
 30
0.0
 10
16.09229996755766
 20
35.45616587886798
 30
0.0
 10
16.16208456530603
 20
35.22354996146805
 30
0.0
 10
15.96436139045636
 20
34.93278006471337
 30
0.0
 10
15.87131466855226
 20
34.78157936345815
 30
0.0
 10
15.91783802950613
 20
34.53733371501403
 30
0.0
 10
15.90620741110797
 20
34.3279790344086
 30
0.0
 10
15.8945767927089
 20
34.17677833315429
 30
0.0
 10
15.92946864790338
 20
34.00231639510002
 30
0.0
 10
15.88294617430984
 20
33.86274719959965
 30
0.0
 10
15.81316157656056
 20
33.64176278795821
 30
0.0
 10
15.80153095816149
 20
33.44403783839152
 30
0.0
 10
15.8945767927089
 20
33.2230534267419
 30
0.0
 10
16.15045394690696
 20
32.66477487003613
 30
0.0
 10
16.54590118396482
 20
32.22280427202804
 30
0.0
 10
17.01113301877103
 20
31.83898942808355
 30
0.0
 10
17.26701017297
 20
31.62963474747539
 30
0.0
 10
17.54614945132653
 20
31.55985103708827
 30
0.0
 10
17.87181209063237
 20
31.61800501643847
 30
0.0
 10
17.97648943093736
 20
31.62963652219514
 30
0.0
 10
18.10442800803685
 20
31.57148254284584
 30
0.0
 10
18.20910534834002
 20
31.51332856349472
 30
0.0
 10
18.34867454383766
 20
31.43191334734729
 30
0.0
 10
18.45335188414174
 20
31.26908114033176
 30
0.0
 10
18.59292196699789
 20
31.23419017250035
 30
0.0
 10
18.80227576024481
 20
31.17603619314741
 30
0.0
 10
18.94184495574427
 20
31.08298947123876
 30
0.0
 10
19.06978442020227
 20
30.93178876998718
 30
0.0
 10
19.2442463582538
 20
30.72243408938266
 30
0.0
 10
19.46523076989979
 20
30.58286489388411
 30
0.0
 10
19.74437093561573
 20
30.62938736747492
 30
0.0
 10
19.95372561622116
 20
30.66428011002972
 30
0.0
 10
20.04677233812708
 20
30.60612613068133
 30
0.0
 10
20.10492631747729
 20
30.39677145007136
 30
0.0
 10
20.2328657819362
 20
29.95480085206145
 30
0.0
 10
20.50037266717391
 20
29.82686316232321
 30
0.0
 10
20.9539747709432
 20
29.93153961526787
 30
0.0
 10
21.0819142354012
 20
29.96643235782085
 30
0.0
 10
21.25637617345274
 20
29.93153961526787
 30
0.0
 10
21.3843138631928
 20
29.87338563591584
 30
0.0
 10
21.67508375994657
 20
29.74544617145784
 30
0.0
 10
21.94259241990403
 20
29.57098423340267
 30
0.0
 10
22.22173081090114
 20
29.44304654366169
 30
0.0
 10
22.40782425471116
 20
29.3616313275179
 30
0.0
 10
22.50086920189824
 20
29.24532336881475
 30
0.0
 10
22.5241322134134
 20
29.05922992501019
 30
0.0
 10
22.55902495596456
 20
28.79172126504818
 30
0.0
 10
22.58228619276269
 20
28.53584411084921
 30
0.0
 10
22.58228619276269
 20
28.26833545088994
 30
0.0
 10
22.57065468700603
 20
27.90778006903201
 30
0.0
 10
22.6171789353175
 20
27.53559495612717
 30
0.0
 10
22.30314780176559
 20
27.24482505937885
 30
0.0
 10
22.25662532817296
 20
27.20993231681859
 30
0.0
 10
22.23336231665598
 20
27.1167702382063
 30
0.0
 10
22.23336231665598
 20
27.05861625885518
 30
0.0
 10
22.26825505921079
 20
26.75621485634656
 30
0.0
 10
22.32640903856372
 20
26.46544495958915
 30
0.0
 10
22.57065468700603
 20
26.25620918512686
 30
0.0
 10
22.9777325424584
 20
25.90728530902743
 30
0.0
 10
23.45459588302401
 20
25.69793240313993
 30
0.0
 10
23.98961142822009
 20
25.65140638010962
 30
0.0
 10
24.22222734562274
 20
25.62814336859083
 30
0.0
 10
24.46647476878206
 20
25.65140638010962
 30
0.0
 10
24.71072041722618
 20
25.63977487434931
 30
0.0
 10
25.02475155077627
 20
25.62802623716561
 30
0.0
 10
25.12942977843704
 20
25.47694444205263
 30
0.0
 10
25.04801278757077
 20
25.18617454529885
 30
0.0
 10
25.02475155077627
 20
25.11638906019471
 30
0.0
 10
25.00149031397814
 20
25.03497561875884
 30
0.0
 10
24.96659757142334
 20
24.96519013365651
 30
0.0
 10
24.66419616891471
 20
24.348759372313
 30
0.0
 10
24.8502896127211
 20
23.94168151685699
 30
0.0
 10
25.48998338558158
 20
23.74395656729212
 30
0.0
 10
25.61792285004049
 20
23.6975512251247
 30
0.0
 10
25.80401451913167
 20
23.55786312348209
 30
0.0
 10
25.80401451913167
 20
23.4649353077275
 30
0.0
 10
25.82727575592799
 20
22.9764404614034
 30
0.0
 10
26.03663043653614
 20
22.45305464724697
 30
0.0
 10
25.65281381787645
 20
21.9993371867713
 30
0.0
 10
25.606291344282
 20
21.95293184460206
 30
0.0
 10
25.55976709596871
 20
21.89477786525276
 30
0.0
 10
25.5481373649327
 20
21.82487524871794
 30
0.0
 10
25.52487612813638
 20
21.69693578425904
 30
0.0
 10
25.47835187982491
 20
21.53410535196235
 30
0.0
 10
25.52487612813638
 20
21.429546030442
 30
0.0
 10
25.58303010748568
 20
21.30148943455788
 30
0.0
 10
25.58303010748568
 20
21.23182108088258
 30
0.0
 10
25.50161489134007
 20
21.12702749650998
 30
0.0
 10
25.32715295328671
 20
20.89441157910551
 30
0.0
 10
25.21084499458448
 20
20.66179566169922
 30
0.0
 10
25.18758375778816
 20
20.35939425919059
 30
0.0
 10
25.15269101523518
 20
19.74296349785072
 30
0.0
 10
25.07127579908774
 20
19.12652918706772
 30
0.0
 10
25.02475332549511
 20
18.51009842572967
 30
0.0
 10
25.0014920886988
 20
18.20769702321923
 30
0.0
 10
24.98986058294031
 20
17.89366766438252
 30
0.0
 10
25.0014920886988
 20
17.59138339329365
 30
0.0
 10
25.01312359445365
 20
17.33550446437948
 30
0.0
 10
25.15269278995402
 20
17.11440292130646
 30
0.0
 10
25.40856994415117
 20
17.05624894195716
 30
0.0
 10
25.75749382025606
 20
16.98646345684392
 30
0.0
 10
26.11804920211944
 20
16.93994098325129
 30
0.0
 10
26.46697307822433
 20
16.93994098325129
 30
0.0
 10
27.40906825359343
 20
16.93994098325129
 30
0.0
 10
28.10691600580139
 20
16.10263939225842
 30
0.0
 10
27.94408379878951
 20
15.17217572264599
 30
0.0
 10
27.89756132519688
 20
14.92781116806145
 30
0.0
 10
27.9091910562347
 20
14.66042141424623
 30
0.0
 10
27.92082256199501
 20
14.40442535389593
 30
0.0
 10
27.93245406774804
 20
14.07876448931529
 30
0.0
 10
28.03713052069361
 20
14.00909613562544
 30
0.0
 10
28.36279316000218
 20
14.06725011497838
 30
0.0
 10
28.51399386125922
 20
14.09039599507378
 30
0.0
 10
28.66519456251262
 20
14.13703560008435
 30
0.0
 10
28.81639348905082
 20
14.14854997441762
 30
0.0
 10
29.18857860194839
 20
14.17181298593277
 30
0.0
 10
29.45608726190767
 20
13.93919706853012
 30
0.0
 10
29.40956478831504
 20
13.56701018090826
 30
0.0
 10
29.36304231472241
 20
13.14830081969922
 30
0.0
 10
29.28162532385613
 20
12.71796350216573
 30
0.0
 10
29.14205612835758
 20
12.32263073446484
 30
0.0
 10
28.99085542710236
 20
11.88054477974038
 30
0.0
 10
28.95596268454756
 20
11.89228986749004
 30
0.0
 10
29.33977930320907
 20
11.62466585082257
 30
0.0
 10
29.72359592186694
 20
11.35715896558213
 30
0.0
 10
29.87479662312035
 20
10.98497207796208
 30
0.0
 10
29.81664264377105
 20
10.53148888034411
 30
0.0
 10
29.78174990121443
 20
10.22897034640664
 30
0.0
 10
29.70033468506881
 20
9.938200449647411
 30
0.0
 10
29.68870317931214
 20
9.635916178565822
 30
0.0
 10
29.67707167355366
 20
9.170684343760513
 30
0.0
 10
29.3630405400072
 20
8.926436920597553
 30
0.0
 10
29.01411666389868
 20
8.810128961898954
 30
0.0
 10
28.07202148852957
 20
8.519359065141543
 30
0.0
 10
27.35091249952529
 20
7.926070634444841
 30
0.0
 10
26.65306474731369
 20
7.28637686159891
 30
0.0
 10
26.22272565506319
 20
6.891047643322963
 30
0.0
 10
25.85054054216016
 20
6.448958139168099
 30
0.0
 10
25.4550924177438
 20
6.018737953061645
 30
0.0
 10
25.23410800609963
 20
5.78612203566081
 30
0.0
 10
25.22247650034114
 20
5.634805977690121
 30
0.0
 10
25.3969384383945
 20
5.355781168686008
 30
0.0
 10
25.44346091198895
 20
5.27436417782701
 30
0.0
 10
25.48998516030042
 20
5.19295073639114
 30
0.0
 10
25.54813913964972
 20
5.12316525128881
 30
0.0
 10
25.82727753064682
 20
4.7624927379984
 30
0.0
 10
26.18783291250838
 20
4.460208466913173
 30
0.0
 10
26.07152495380797
 20
3.913563190677451
 30
0.0
 10
26.02500248021533
 20
3.692695910462135
 30
0.0
 10
26.18783291250838
 20
3.587902326093172
 30
0.0
 10
26.40881732415255
 20
3.657684261756003
 30
0.0
 10
26.50186404606029
 20
3.680947273278434
 30
0.0
 10
26.58327926220954
 20
3.72758687829446
 30
0.0
 10
26.66469447835334
 20
3.785740857643759
 30
0.0
 10
26.85078792216518
 20
3.913680322104483
 30
0.0
 10
27.00198684870338
 20
3.843894836993059
 30
0.0
 10
27.11829480740198
 20
3.704323866782943
 30
0.0
 10
27.57189513645062
 20
3.134415579032066
 30
0.0
 10
28.0836512195674
 20
2.645920732709783
 30
0.0
 10
28.65355950731828
 20
2.215583415178116
 30
0.0
 10
28.90943666151907
 20
2.029372839935604
 30
0.0
 10
29.10715983636692
 20
1.785242548203314
 30
0.0
 10
29.15368408467839
 20
1.471213189377522
 30
0.0
 10
29.18857682723319
 20
1.203706304137086
 30
0.0
 10
29.35140725952806
 20
1.18044329262375
 30
0.0
 10
29.5607619401344
 20
1.203706304137086
 30
0.0
 10
29.75848511498043
 20
1.226969315646784
 30
0.0
 10
29.94457855879045
 20
1.28512329500154
 30
0.0
 10
30.15393323939861
 20
1.331645768594171
 30
0.0
 10
30.28187270386115
 20
1.064138883359192
 30
0.0
 10
30.47959587870719
 20
1.029244366083731
 30
0.0
 10
30.66568754779655
 20
1.261860283486385
 30
0.0
 10
30.74710276394762
 20
1.366536736433773
 30
0.0
 10
30.84014948585173
 20
1.48284469513419
 30
0.0
 10
30.86341072264622
 20
1.610784159591276
 30
0.0
 10
30.99135018710695
 20
2.134169973745884
 30
0.0
 10
31.23559583554925
 20
2.564510840717048
 30
0.0
 10
31.63104395996561
 20
2.936694178901234
 30
0.0
 10
32.01474344719463
 20
3.297249560766431
 30
0.0
 10
32.35215294897171
 20
3.704327416216984
 30
0.0
 10
32.72433806186928
 20
4.111405271671174
 30
0.0
 10
32.74759929866741
 20
4.088142260159657
 30
0.0
 10
32.7941235469807
 20
4.064882798074905
 30
0.0
 10
32.82889915810301
 20
4.029988280810358
 30
0.0
 10
33.11966905486224
 20
3.72758687829446
 30
0.0
 10
33.45696142520319
 20
3.750967021238466
 30
0.0
 10
33.67806474299687
 20
4.099890897343357
 30
0.0
 10
33.80600420745395
 20
4.309243803232675
 30
0.0
 10
33.93382654048946
 20
4.518600258559673
 30
0.0
 10
34.03862012486206
 20
4.751216175960508
 30
0.0
 10
34.22471356867027
 20
5.146662525650754
 30
0.0
 10
34.49222045390525
 20
5.437432422413622
 30
0.0
 10
34.84114433001196
 20
5.693311351324155
 30
0.0
 10
35.0853917531731
 20
5.879521926563029
 30
0.0
 10
35.29462752763175
 20
6.11213784397296
 30
0.0
 10
35.46908946568328
 20
6.356268135697974
 30
0.0
 10
35.74822785668221
 20
6.763345991153983
 30
0.0
 10
35.84127635330697
 20
7.263468793802531
 30
0.0
 10
35.89943033265263
 20
7.74033213436087
 30
0.0
 10
35.95758431200738
 20
8.159041495571728
 30
0.0
 10
35.98084732352072
 20
8.589378813105213
 30
0.0
 10
36.02736979711881
 20
9.007971042896315
 30
0.0
 10
36.03911843430069
 20
9.170801475189364
 30
0.0
 10
36.07389227070598
 20
9.333749038909446
 30
0.0
 10
36.09727241364817
 20
9.484951514883505
 30
0.0
 10
36.17868940451626
 20
10.00833732903629
 30
0.0
 10
36.62065822780642
 20
10.41541518449412
 30
0.0
 10
36.5507556112716
 20
10.99695497800531
 30
0.0
 10
36.66706356997383
 20
10.93880099865237
 30
0.0
 10
36.74848056084011
 20
10.88064701930671
 30
0.0
 10
36.84152550802537
 20
10.83412454571408
 30
0.0
 10
37.00435594032388
 20
10.76433906060083
 30
0.0
 10
37.1322954047755
 20
10.78771920353938
 30
0.0
 10
37.21371239564178
 20
10.97369551592601
 30
0.0
 10
37.38817433369877
 20
11.39240487713869
 30
0.0
 10
37.760361221317
 20
11.59012627726952
 30
0.0
 10
38.15592470244519
 20
11.70643423597357
 30
0.0
 10
38.46995761071048
 20
11.81111068891551
 30
0.0
 10
38.73746449594728
 20
11.95079879056175
 30
0.0
 10
38.99334342486509
 20
12.16003456501676
 30
0.0
 10
39.2841133216225
 20
12.40428198818154
 30
0.0
 10
39.58651472413112
 20
12.63689790558055
 30
0.0
 10
40.01685204167006
 20
12.61363489406358
 30
0.0
 10
40.64479717733957
 20
12.59037188254842
 30
0.0
 10
41.22633697084893
 20
12.74157435852976
 30
0.0
 10
41.66842647500016
 20
13.23006565541073
 30
0.0
 10
42.05224131894283
 20
13.64877501662522
 30
0.0
 10
42.4593191743952
 20
13.71856050173119
 30
0.0
 10
42.94781402071749
 20
13.43941856129641
 30
0.0
 10
43.26172979756302
 20
13.26495662325033
 30
0.0
 10
43.61065367366609
 20
13.24169361173699
 30
0.0
 10
43.97132263751701
 20
13.28821963476003
 30
0.0
 10
44.66917038972497
 20
13.39277895627856
 30
0.0
 10
45.27397319474585
 20
13.6952974902124
 30
0.0
 10
45.84388148249855
 20
14.09062670849016
 30
0.0
 10
46.2858503057887
 20
14.40465961675363
 30
0.0
 10
46.6813002049239
 20
14.76532858060636
 30
0.0
 10
46.91391612232837
 20
15.27696930701313
 30
0.0
 10
47.06511504886112
 20
15.61426167735954
 30
0.0
 10
47.29773096626923
 20
15.88177211203765
 30
0.0
 10
47.65828634812897
 20
16.02133953281918
 30
0.0
 10
47.7745943068312
 20
16.06774487497751
 30
0.0
 10
47.89090226553344
 20
16.11438448000081
 30
0.0
 10
47.97220212497086
 20
16.1958014708689
 30
0.0
 10
48.42580245401587
 20
16.7424502965423
 30
0.0
 10
48.87951991449881
 20
17.30072707853287
 30
0.0
 10
49.32149228722119
 20
17.87051823485308
 30
0.0
 10
49.54235956744014
 20
18.16128813161049
 30
0.0
 10
49.43780024592343
 20
18.51021200771356
 30
0.0
 10
49.46106325744222
 20
18.83599000373033
 30
0.0
 10
49.47269476319889
 20
19.13839140624623
 30
0.0
 10
49.50746859960418
 20
19.46393513940711
 30
0.0
 10
49.7749790342823
 20
19.63839707745683
 30
0.0
 10
50.2402108690876
 20
19.95242998572394
 30
0.0
 10
50.47282678648844
 20
20.40614744620507
 30
0.0
 10
50.65903736172368
 20
20.89452161165718
 30
0.0
 10
50.74045435259177
 20
21.09224656122751
 30
0.0
 10
50.74045435259177
 20
21.32486247862653
 30
0.0
 10
50.77534532042773
 20
21.53421538451948
 30
0.0
 10
50.76359668324585
 20
21.56922348377702
 30
0.0
 10
50.84513080553916
 20
21.59236936386515
 30
0.0
 10
50.85676231129764
 20
21.62737746312814
 30
0.0
 10
50.90316765346142
 20
21.7668313019185
 30
0.0
 10
50.93806217073325
 20
21.91814735988555
 30
0.0
 10
50.9613216328089
 20
22.06934628642011
 30
0.0
 10
51.04273862367518
 20
22.48805564763643
 30
0.0
 10
51.12415206510741
 20
22.89513350309062
 30
0.0
 10
51.1939375502152
 20
23.3138428643033
 30
0.0
 10
51.27535454107965
 20
23.81396566694457
 30
0.0
 10
51.34513647674794
 20
24.3140920190217
 30
0.0
 10
51.41492196186118
 20
24.81409769023776
 30
0.0
 10
51.48470744696897
 20
25.27932952504307
 30
0.0
 10
51.50796690904463
 20
25.74456135984656
 30
0.0
 10
51.60101540566757
 20
26.2097931946555
 30
0.0
 10
51.65916938502232
 20
26.53545405924342
 30
0.0
 10
51.84537996025756
 20
26.82622395599901
 30
0.0
 10
52.18255519917693
 20
26.93090395837862
 30
0.0
 10
53.27584930108605
 20
27.30308907127983
 30
0.0
 10
54.03185103264332
 20
28.01256832924264
 30
0.0
 10
54.35751544666709
 20
29.11749393690752
 30
0.0
 10
54.52034587896196
 20
29.65251125682425
 30
0.0
 10
54.83437878723453
 20
29.90838841102322
 30
0.0
 10
55.35776460139095
 20
30.00143513292824
 30
0.0
 10
55.95105303208038
 20
30.10611158587199
 30
0.0
 10
56.49769830831247
 20
30.31546626648196
 30
0.0
 10
56.84662218441736
 20
30.85048358639324
 30
0.0
 10
56.93966713160808
 20
31.0016842876521
 30
0.0
 10
56.99782111095919
 20
31.17614622569999
 30
0.0
 10
57.11412906966143
 20
31.30408391544006
 30
0.0
 10
57.41653047217005
 20
31.62974655474954
 30
0.0
 10
57.74207420533276
 20
31.93214618254297
 30
0.0
 10
58.05622424503235
 20
32.24617909081098
 30
0.0
 10
58.80059447082931
 20
32.97891958557375
 30
0.0
 10
59.0797328618246
 20
33.83959777007749
 30
0.0
 10
58.82397461377332
 20
34.86310816159221
 30
0.0
 10
58.7308125351592
 20
35.21203203769619
 30
0.0
 10
58.68440364355956
 20
35.56095591380563
 30
0.0
 10
58.62624966420663
 20
35.92151129566446
 30
0.0
 10
58.57972719061581
 20
36.21228119241823
 30
0.0
 10
58.60298665268965
 20
36.52631232597196
 30
0.0
 10
58.52157321126469
 20
36.80545249168244
 30
0.0
 10
58.33547976745467
 20
37.42188502774479
 30
0.0
 10
57.98655589134978
 20
37.91037809934915
 30
0.0
 10
57.27707663338333
 20
38.02668605805047
 30
0.0
 10
57.07946881524367
 20
38.06157880060255
 30
0.0
 10
56.89326178944248
 20
38.11973277995367
 30
0.0
 10
56.69553683987579
 20
38.14299401674998
 30
0.0
 10
56.26531310433347
 20
38.21277950186141
 30
0.0
 10
55.90464414047892
 20
38.39887117094895
 30
0.0
 10
55.63713370580626
 20
38.72453381026025
 30
0.0
 10
55.17190187100095
 20
39.31770510952538
 30
0.0
 10
54.71830154194868
 20
39.93413587086707
 30
0.0
 10
54.28796067497933
 20
40.55056840692851
 30
0.0
 10
54.00882228398405
 20
40.94601475662785
 30
0.0
 10
53.79946582865523
 20
41.37635562360083
 30
0.0
 10
53.22944040948096
 20
41.42287809718982
 30
0.0
 10
53.15965492437135
 20
41.42287809718982
 30
0.0
 10
53.07824148294276
 20
41.52755455013448
 30
0.0
 10
53.0317154599179
 20
41.60897154100076
 30
0.0
 10
52.79909954250616
 20
42.01604939645676
 30
0.0
 10
52.4501756664049
 20
42.22540407706038
 30
0.0
 10
51.99669246878511
 20
42.27192655065301
 30
0.0
 10
51.7523279141933
 20
42.29518778744932
 30
0.0
 10
51.48493816038354
 20
42.31844991160688
 30
0.0
 10
51.26395374874301
 20
42.24866531385851
 30
0.0
 10
50.62425997588252
 20
42.03931063325126
 30
0.0
 10
50.0427201823768
 20
42.22540407706038
 30
0.0
 10
49.47281189462774
 20
42.44638848870636
 30
0.0
 10
49.24019597722327
 20
42.52780370485561
 30
0.0
 10
49.00758005981697
 20
42.67900440611083
 30
0.0
 10
48.84474962752574
 20
42.85346634416328
 30
0.0
 10
48.63539672163279
 20
43.07445164316596
 30
0.0
 10
48.3795177927168
 20
43.17912898346731
 30
0.0
 10
48.100496533154
 20
43.21402083866542
 30
0.0
 10
47.5653620818066
 20
43.29543605481194
 30
0.0
 10
47.065356410596
 20
43.14423624091705
 30
0.0
 10
46.5767444328485
 20
42.95814368446645
 30
0.0
 10
46.33249700968736
 20
42.86509696256235
 30
0.0
 10
46.07662163020359
 20
42.77205112801585
 30
0.0
 10
45.79759682119766
 20
42.67900440611083
 30
0.0
 10
45.92553628565474
 20
43.17912898346731
 30
0.0
 10
46.0418442443588
 20
43.63272931251777
 30
0.0
 10
46.16966657738885
 20
44.08633052892583
 30
0.0
 10
46.22782055673997
 20
44.30731582793214
 30
0.0
 10
46.20467467665185
 20
44.42362378663074
 30
0.0
 10
45.97205875925101
 20
44.51666962117633
 30
0.0
 10
45.62313488314794
 20
44.66787032243337
 30
0.0
 10
45.29735688712572
 20
44.86559349728032
 30
0.0
 10
44.97169247310376
 20
45.0633166721309
 30
0.0
 10
44.80897917223592
 20
45.16799401243497
 30
0.0
 10
44.68092257634635
 20
45.31919382633077
 30
0.0
 10
44.50646063829663
 20
45.42387116663303
 30
0.0
 10
43.89002987695494
 20
45.79605627953697
 30
0.0
 10
43.21544158682627
 20
46.00541096014149
 30
0.0
 10
42.50596232885255
 20
46.14498015564095
 30
0.0
 10
41.71506962946296
 20
46.29618085689526
 30
0.0
 10
40.97081298564808
 20
46.17987289819393
 30
0.0
 10
40.3193741250434
 20
45.66811770243385
 30
0.0
 10
39.99371326045366
 20
45.41224054823397
 30
0.0
 10
39.66804884642988
 20
45.16799312507646
 30
0.0
 10
39.35401948759318
 20
44.9353772076729
 30
0.0
 10
39.24934303465488
 20
45.17962374347553
 30
0.0
 10
39.09814055867537
 20
45.38897842408096
 30
0.0
 10
38.91205066430302
 20
45.55180974373343
 30
0.0
 10
39.02835862300708
 20
45.5634403621325
 30
0.0
 10
39.1562980874678
 20
45.59833310468548
 30
0.0
 10
39.27260604617004
 20
45.64485646563844
 30
0.0
 10
39.50522196356906
 20
45.73790318754527
 30
0.0
 10
39.73783788097171
 20
45.8425796404872
 30
0.0
 10
39.93556283054022
 20
45.98214972334699
 30
0.0
 10
40.28448670664147
 20
46.24965838330445
 30
0.0
 10
40.63341058275
 20
46.52879677429701
 30
0.0
 10
40.94744349101711
 20
46.84282879520924
 30
0.0
 10
41.13353693483077
 20
47.02892135165894
 30
0.0
 10
41.08701446123632
 20
47.18012205291325
 30
0.0
 10
40.84276703807336
 20
47.29643001161639
 30
0.0
 10
40.16818229738419
 20
47.62209265092406
 30
0.0
 10
39.4470715336538
 20
47.75003122802536
 30
0.0
 10
38.70281843928024
 20
47.75003122802536
 30
0.0
 10
38.35389456317716
 20
47.75003122802536
 30
0.0
 10
38.06300753499454
 20
47.61046203252408
 30
0.0
 10
37.79550064975774
 20
47.4476307128707
 30
0.0
 10
37.51647939019131
 20
47.27316877482008
 30
0.0
 10
37.27211483560131
 20
47.06381409421283
 30
0.0
 10
36.98134493884754
 20
46.90098366191614
 30
0.0
 10
36.74872902143943
 20
46.77304508481939
 30
0.0
 10
36.50448159828375
 20
46.64510650771717
 30
0.0
 10
36.15555772217704
 20
46.72652172386461
 30
0.0
 10
36.26011704369375
 20
46.94750702287274
 30
0.0
 10
36.31827102304487
 20
47.1684923218736
 30
0.0
 10
36.44632761893808
 20
47.34295425992605
 30
0.0
 10
36.96971343308905
 20
48.06406324893214
 30
0.0
 10
37.62103871170621
 20
48.63397242404426
 30
0.0
 10
38.4002999053464
 20
49.06431240365418
 30
0.0
 10
38.62128431698693
 20
49.1806203623546
 30
0.0
 10
38.80737776079513
 20
49.33182106361164
 30
0.0
 10
38.76097241863317
 20
49.6225905166848
 30
0.0
 10
38.72608145079175
 20
49.83194475361051
 30
0.0
 10
38.80737776079513
 20
49.97151439278878
 30
0.0
 10
38.97032532452431
 20
50.08782235148828
 30
0.0
 10
39.09826478897958
 20
50.18086862971541
 30
0.0
 10
39.21457274768363
 20
50.28554597001857
 30
0.0
 10
39.3774031799785
 20
50.42511560919684
 30
0.0
 10
39.22620425344212
 20
50.50653126902398
 30
0.0
 10
39.13303862538487
 20
50.57631586677417
 30
0.0
 10
39.01673066668991
 20
50.61120816564835
 30
0.0
 10
38.79586338646732
 20
50.69262382547458
 30
0.0
 10
38.53986732612066
 20
50.72751612434968
 30
0.0
 10
38.33063155166383
 20
50.83219346465194
 30
0.0
 10
38.19106058144644
 20
50.9019780624003
 30
0.0
 10
38.05149316066672
 20
51.04154770157857
 30
0.0
 10
38.01659864339308
 20
51.18111734075592
 30
0.0
 10
37.94669602685826
 20
51.44862555703457
 30
0.0
 10
37.97007616980045
 20
51.73939545379017
 30
0.0
 10
37.90029068469448
 20
52.01853473214396
 30
0.0
 10
37.76071971447527
 20
52.65822850500081
 30
0.0
 10
37.58625777642374
 20
53.29792227785947
 30
0.0
 10
37.43505884988735
 20
53.87946207136793
 30
0.0
 10
37.14428895313358
 20
54.07718568989549
 30
0.0
 10
36.95807837789289
 20
53.96087773119325
 30
0.0
 10
36.79536507702687
 20
53.77478495290325
 30
0.0
 10
36.63253464473564
 20
53.60032301484989
 30
0.0
 10
36.44644120092016
 20
53.44912275727529
 30
0.0
 10
36.29524227438742
 20
53.26302997898711
 30
0.0
 10
36.22533965784714
 20
53.16998370076089
 30
0.0
 10
36.16718567849784
 20
53.03041406158172
 30
0.0
 10
36.19056582144367
 20
52.9141061028804
 30
0.0
 10
36.2370882950363
 20
52.56518222677369
 30
0.0
 10
36.2370882950363
 20
52.50702824742621
 30
0.0
 10
35.91142743044293
 20
52.42561258760088
 30
0.0
 10
35.62065753369279
 20
52.34419692777283
 30
0.0
 10
35.44619559563762
 20
52.16973498972038
 30
0.0
 10
35.35315064845418
 20
51.91385739184352
 30
0.0
 10
35.28336516334821
 20
51.7277648353911
 30
0.0
 10
35.14379774256486
 20
51.634718113487
 30
0.0
 10
34.95782143018187
 20
51.5881951962092
 30
0.0
 10
34.43443561602908
 20
51.46025661911426
 30
0.0
 10
33.9226813076275
 20
51.49514891798754
 30
0.0
 10
33.39929549347107
 20
51.56493351573408
 30
0.0
 10
33.00396450048174
 20
51.62308749508702
 30
0.0
 10
32.64329376191381
 20
51.71613377331323
 30
0.0
 10
32.4106778445057
 20
52.07668871149599
 30
0.0
 10
32.3642707276249
 20
52.15810437132222
 30
0.0
 10
32.2479627689263
 20
52.2162583506697
 30
0.0
 10
32.16643042134638
 20
52.22788896906877
 30
0.0
 10
31.82913805099997
 20
52.2860429484208
 30
0.0
 10
31.49184390593837
 20
52.32093524729498
 30
0.0
 10
31.15455153559014
 20
52.3790892266461
 30
0.0
 10
30.91030411243082
 20
52.42561258760088
 30
0.0
 10
30.77073491693227
 20
52.34419692777283
 30
0.0
 10
30.6311657214319
 20
52.13484269084438
 30
0.0
 10
30.38691829827076
 20
51.73939545379017
 30
0.0
 10
29.80537850476685
 20
51.29742529945815
 30
0.0
 10
29.16568473190637
 20
51.55330289733774
 30
0.0
 10
28.75860687645036
 20
51.71613421699203
 30
0.0
 10
28.32826778419985
 20
51.65798023764
 30
0.0
 10
27.90955842298899
 20
51.51841059846083
 30
0.0
 10
27.51411207328965
 20
51.39047202136317
 30
0.0
 10
27.10703421783546
 20
51.29742529945815
 30
0.0
 10
26.69995636237763
 20
51.22764070170888
 30
0.0
 10
26.40918646562386
 20
51.16948672235776
 30
0.0
 10
26.11841656887191
 20
51.21601008330981
 30
0.0
 10
25.88580065146925
 20
51.43699493863733
 30
0.0
 10
25.38567607410732
 20
51.90222677344536
 30
0.0
 10
25.09490617735537
 20
52.48376656694836
 30
0.0
 10
25.01349096120612
 20
53.1699834789224
 30
0.0
 10
24.94370547610015
 20
53.73989243218966
 30
0.0
 10
25.16469166246134
 20
54.22838594747191
 30
0.0
 10
25.45546155921511
 20
54.68198694204057
 30
0.0
 10
25.7694926927652
 20
55.15884961708343
 30
0.0
 10
25.75786296172737
 20
55.21700359643273
 30
0.0
 10
25.32752209475802
 20
55.55429663230007
 30
0.0
 10
25.11816741415169
 20
55.71712773011495
 30
0.0
 10
25.03675219800425
 20
55.90322050840496
 30
0.0
 10
25.09490617735537
 20
56.15909799536621
 30
0.0
 10
25.11816741415169
 20
56.26377516928824
 30
0.0
 10
25.18795289926129
 20
56.36845234321027
 30
0.0
 10
25.16469166246134
 20
56.44986789211816
 30
0.0
 10
25.14143042566502
 20
56.57780663559788
 30
0.0
 10
25.08327644631572
 20
56.74063778887285
 30
0.0
 10
24.9902297244098
 20
56.78716098344557
 30
0.0
 10
24.72272106445416
 20
56.92673053943236
 30
0.0
 10
24.51336638384601
 20
56.84531496279578
 30
0.0
 10
24.30401347795851
 20
56.5545450660411
 30
0.0
 10
24.01324358120473
 20
56.17072883560286
 30
0.0
 10
23.75736642700576
 20
55.7403894105928
 30
0.0
 10
23.23398061284752
 20
55.65897375076202
 30
0.0
 10
22.86179549994631
 20
55.60081977141363
 30
0.0
 10
22.47797888128844
 20
55.5659273616202
 30
0.0
 10
22.09416226263056
 20
55.53103495182404
 30
0.0
 10
22.00111554072646
 20
55.51940411158739
 30
0.0
 10
21.90806881882236
 20
55.55429652138082
 30
0.0
 10
21.81502387163528
 20
55.54266579206251
 30
0.0
 10
21.52425397488332
 20
55.53103495182404
 30
0.0
 10
21.37305327362628
 20
55.33331144421481
 30
0.0
 10
21.23348407812591
 20
55.11232636705063
 30
0.0
 10
20.98923665496659
 20
54.70524840067628
 30
0.0
 10
20.88456020202284
 20
54.69361778227722
 30
0.0
 10
20.53563632591795
 20
55.01927997790608
 30
0.0
 10
20.50074358336406
 20
55.04254154746013
 30
0.0
 10
20.47748234656683
 20
55.08906479749476
 30
0.0
 10
20.44258960401385
 20
55.10069552681307
 30
0.0
 10
20.12855847046194
 20
55.26352662462705
 30
0.0
 10
19.8261570679515
 20
55.42635783336118
 30
0.0
 10
19.51212593440323
 20
55.55429663230007
 30
0.0
 10
19.43071071825398
 20
55.58918904209622
 30
0.0
 10
19.25624878020153
 20
55.50777349318741
 30
0.0
 10
19.19809480085041
 20
55.42635783336118
 30
0.0
 10
18.98874012024498
 20
55.13558793660741
 30
0.0
 10
18.98874012024498
 20
54.79829490074098
 30
0.0
 10
19.07015533639151
 20
54.46100186487547
 30
0.0
 10
19.18646329509284
 20
54.01903171054619
 30
0.0
 10
19.39581797569917
 20
53.68173845283945
 30
0.0
 10
19.84941830474781
 20
53.47238421591192
 30
0.0
 10
20.24486465444625
 20
53.28629143762282
 30
0.0
 10
20.22160341765084
 20
52.80942876257814
 30
0.0
 10
19.84941830474781
 20
52.60007452565151
 30
0.0
 10
19.7331103460474
 20
52.53028992790496
 30
0.0
 10
19.59354115054794
 20
52.49539718534652
 30
0.0
 10
19.47723319184752
 20
52.42561258760088
 30
0.0
 10
18.68633871773272
 20
51.97201137119009
 30
0.0
 10
17.89544513097917
 20
51.51841059846083
 30
0.0
 10
17.10455065686438
 20
51.0531787636537
 30
0.0
 10
16.94171933721191
 20
50.94850142335235
 30
0.0
 10
16.79051952331429
 20
50.94850142335235
 30
0.0
 10
16.62768820366091
 20
51.01828646478407
 30
0.0
 10
16.3252876885108
 20
51.1578561039596
 30
0.0
 10
16.03451779175521
 20
51.16948672235776
 30
0.0
 10
15.75537851339868
 20
50.96013248543295
 30
0.0
 10
15.72048577084479
 20
50.92524018655786
 30
0.0
 10
15.61580931790104
 20
50.92524018655786
 30
0.0
 10
15.5692859569499
 20
50.96013248543295
 30
0.0
 10
15.20873146244503
 20
51.20437902123376
 30
0.0
 10
14.91796156569217
 20
51.49514891798754
 30
0.0
 10
14.83654546218531
 20
51.96038075279193
 30
0.0
 10
14.76676086443695
 20
52.36745860824794
 30
0.0
 10
14.56903680222786
 20
52.66985912339806
 30
0.0
 10
14.12706709157919
 20
52.77453646370304
 30
0.0
 10
13.82466657642817
 20
52.84432106145232
 30
0.0
 10
13.55715791647071
 20
52.77453646370304
 30
0.0
 10
13.27801863811419
 20
52.68149018547774
 30
0.0
 10
12.88257140105725
 20
52.55355160837917
 30
0.0
 10
12.49875566975606
 20
52.5419205463013
 30
0.0
 10
12.08004630854339
 20
52.60007452565151
 30
0.0
 10
11.78927641179143
 20
52.64659788660174
 30
0.0
 10
11.48687589663768
 20
52.63496682452569
 30
0.0
 10
11.19610599988573
 20
52.60007452565151
 30
0.0
 10
10.99838238135544
 20
52.57681284517366
 30
0.0
 10
10.87044380425596
 20
52.41398196919909
 30
0.0
 10
10.84718212378084
 20
52.20462728859457
 30
0.0
 10
10.8239204433039
 20
51.98364198958916
 30
0.0
 10
10.96349008248126
 20
51.85570341248786
 30
0.0
 10
11.14958263893368
 20
51.77428775266071
 30
0.0
 10
11.27752121603135
 20
51.71613377331323
 30
0.0
 10
11.41709129888932
 20
51.6812414744345
 30
0.0
 10
11.51013713343491
 20
51.5881951962092
 30
0.0
 10
11.60318385534174
 20
51.50677953638206
 30
0.0
 10
11.68459907148826
 20
51.36720989720834
 30
0.0
 10
11.68459907148826
 20
51.26253300058306
 30
0.0
 10
11.68459907148826
 20
51.18111734075592
 30
0.0
 10
11.55666049438696
 20
51.06480938205368
 30
0.0
 10
11.46361377248104
 20
51.02991708318223
 30
0.0
 10
11.32404457698613
 20
50.98339372222654
 30
0.0
 10
11.16121325733093
 20
50.97176310382747
 30
0.0
 10
11.01001255607571
 20
50.97176310382747
 30
0.0
 10
10.46336506144235
 20
50.94850142335235
 30
0.0
 10
10.20748746356367
 20
50.61120860932533
 30
0.0
 10
10.42847276256725
 20
50.11108403196704
 30
0.0
 10
10.56804240174461
 20
49.79705245473724
 30
0.0
 10
10.76576602027399
 20
49.4946519395844
 30
0.0
 10
10.98675087559786
 20
49.22714372330847
 30
0.0
 10
11.39382828737598
 20
48.70375790915205
 30
0.0
 10
11.44035164832712
 20
48.21526483754951
 30
0.0
 10
11.06816653542683
 20
47.6802475176346
 30
0.0
 10
10.8588122985002
 20
47.37784700248267
 30
0.0
 10
10.66108867997173
 20
47.06381498157225
 30
0.0
 10
10.77739663867214
 20
46.65673712611624
 30
0.0
 10
10.80065831914726
 20
46.57532190997154
 30
0.0
 10
10.76576602027399
 20
46.47064456966473
 30
0.0
 10
10.71924265932194
 20
46.38922846615878
 30
0.0
 10
10.55641133966583
 20
46.0403045900548
 30
0.0
 10
10.44010338096632
 20
45.67975009555357
 30
0.0
 10
10.45173444304419
 20
45.27267224009938
 30
0.0
 10
10.45173444304419
 20
45.17962551819255
 30
0.0
 10
10.41684214417091
 20
45.07494906524971
 30
0.0
 10
10.38194984529491
 20
44.98190234334288
 30
0.0
 10
10.3237958659447
 20
44.77254766273381
 30
0.0
 10
10.21911852564153
 20
44.56319386949235
 30
0.0
 10
10.20748790724247
 20
44.35383918888238
 30
0.0
 10
10.17259560836828
 20
43.84208399312683
 30
0.0
 10
9.951610309364696
 20
43.65599143667532
 30
0.0
 10
9.47474785615941
 20
43.80719213792872
 30
0.0
 10
9.02114663975226
 20
43.95839283918667
 30
0.0
 10
8.625699846375028
 20
43.88860735407707
 30
0.0
 10
8.218621990919019
 20
43.6676229424329
 30
0.0
 10
8.079052351741666
 20
43.5978383446818
 30
0.0
 10
7.90459041368922
 20
43.58620772628547
 30
0.0
 10
7.741759537713733
 20
43.57457622052789
 30
0.0
 10
7.555666981264949
 20
43.57457622052789
 30
0.0
 10
7.369573981133726
 20
43.60946896307996
 30
0.0
 10
7.171850584445565
 20
43.63273019987719
 30
0.0
 10
7.125327445332005
 20
43.37685304567822
 30
0.0
 10
6.950865507280469
 20
43.27217570537232
 30
0.0
 10
6.718249589878724
 20
43.23728296282297
 30
0.0
 10
6.660095610525786
 20
43.22565234442391
 30
0.0
 10
6.613572471414045
 20
43.19075960186547
 30
0.0
 10
6.567049332301394
 20
43.15586774667372
 30
0.0
 10
5.822678440979871
 20
42.64411255091454
 30
0.0
 10
5.555170113781969
 20
41.85321896415917
 30
0.0
 10
5.357446606173653
 20
41.02743174749139
 30
0.0
 10
5.299292626825263
 20
40.80644733584722
 30
0.0
 10
5.287661786585886
 20
40.59709265523907
 30
0.0
 10
5.02015357030632
 20
40.46915319078107
 30
0.0
 10
4.845691632255694
 20
40.38773797463546
 30
0.0
 10
4.694491263759119
 20
40.20164453082452
 30
0.0
 10
4.578183305056882
 20
40.02718259277299
 30
0.0
 10
4.287413408304019
 20
39.59684350052339
 30
0.0
 10
4.299044193083319
 20
39.28281236696785
 30
0.0
 10
4.62470649963052
 20
38.87573451151547
 30
0.0
 10
4.833689764906921
 20
38.7709409271456
 30
0.0
 10
4.949997723610068
 20
38.56170337796539
 30
0.0
 10
4.926736154053287
 20
38.29407758657726
 30
0.0
  0
HATCH
  5
50
330
4B
100
AcDbEntity
  8
Camada 1
 62
   156
420
    13439
100
AcDbHatch
 10
0.0
 20
0.0
 30
0.0
210
0.0
220
0.0
230
1.0
  2
SOLID
 70
     1
 71
     0
 91
        1
 92
        1
 93
        1
 72
     4
 94
        3
 73
     0
 74
     1
 95
      674
 96
      670
 40
0.0
 40
0.0
 40
0.0
 40
0.0
 40
1.0
 40
1.0
 40
1.0
 40
2.0
 40
2.0
 40
2.0
 40
3.0
 40
3.0
 40
3.0
 40
4.0
 40
4.0
 40
4.0
 40
5.0
 40
5.0
 40
5.0
 40
6.0
 40
6.0
 40
6.0
 40
7.0
 40
7.0
 40
7.0
 40
8.0
 40
8.0
 40
8.0
 40
9.0
 40
9.0
 40
9.0
 40
10.0
 40
10.0
 40
10.0
 40
11.0
 40
11.0
 40
11.0
 40
12.0
 40
12.0
 40
12.0
 40
13.0
 40
13.0
 40
13.0
 40
14.0
 40
14.0
 40
14.0
 40
15.0
 40
15.0
 40
15.0
 40
16.0
 40
16.0
 40
16.0
 40
17.0
 40
17.0
 40
17.0
 40
18.0
 40
18.0
 40
18.0
 40
19.0
 40
19.0
 40
19.0
 40
20.0
 40
20.0
 40
20.0
 40
21.0
 40
21.0
 40
21.0
 40
22.0
 40
22.0
 40
22.0
 40
23.0
 40
23.0
 40
23.0
 40
24.0
 40
24.0
 40
24.0
 40
25.0
 40
25.0
 40
25.0
 40
26.0
 40
26.0
 40
26.0
 40
27.0
 40
27.0
 40
27.0
 40
28.0
 40
28.0
 40
28.0
 40
29.0
 40
29.0
 40
29.0
 40
30.0
 40
30.0
 40
30.0
 40
31.0
 40
31.0
 40
31.0
 40
32.0
 40
32.0
 40
32.0
 40
33.0
 40
33.0
 40
33.0
 40
34.0
 40
34.0
 40
34.0
 40
35.0
 40
35.0
 40
35.0
 40
36.0
 40
36.0
 40
36.0
 40
37.0
 40
37.0
 40
37.0
 40
38.0
 40
38.0
 40
38.0
 40
39.0
 40
39.0
 40
39.0
 40
40.0
 40
40.0
 40
40.0
 40
41.0
 40
41.0
 40
41.0
 40
42.0
 40
42.0
 40
42.0
 40
43.0
 40
43.0
 40
43.0
 40
44.0
 40
44.0
 40
44.0
 40
45.0
 40
45.0
 40
45.0
 40
46.0
 40
46.0
 40
46.0
 40
47.0
 40
47.0
 40
47.0
 40
48.0
 40
48.0
 40
48.0
 40
49.0
 40
49.0
 40
49.0
 40
50.0
 40
50.0
 40
50.0
 40
51.0
 40
51.0
 40
51.0
 40
52.0
 40
52.0
 40
52.0
 40
53.0
 40
53.0
 40
53.0
 40
54.0
 40
54.0
 40
54.0
 40
55.0
 40
55.0
 40
55.0
 40
56.0
 40
56.0
 40
56.0
 40
57.0
 40
57.0
 40
57.0
 40
58.0
 40
58.0
 40
58.0
 40
59.0
 40
59.0
 40
59.0
 40
60.0
 40
60.0
 40
60.0
 40
61.0
 40
61.0
 40
61.0
 40
62.0
 40
62.0
 40
62.0
 40
63.0
 40
63.0
 40
63.0
 40
64.0
 40
64.0
 40
64.0
 40
65.0
 40
65.0
 40
65.0
 40
66.0
 40
66.0
 40
66.0
 40
67.0
 40
67.0
 40
67.0
 40
68.0
 40
68.0
 40
68.0
 40
69.0
 40
69.0
 40
69.0
 40
70.0
 40
70.0
 40
70.0
 40
71.0
 40
71.0
 40
71.0
 40
72.0
 40
72.0
 40
72.0
 40
73.0
 40
73.0
 40
73.0
 40
74.0
 40
74.0
 40
74.0
 40
75.0
 40
75.0
 40
75.0
 40
76.0
 40
76.0
 40
76.0
 40
77.0
 40
77.0
 40
77.0
 40
78.0
 40
78.0
 40
78.0
 40
79.0
 40
79.0
 40
79.0
 40
80.0
 40
80.0
 40
80.0
 40
81.0
 40
81.0
 40
81.0
 40
82.0
 40
82.0
 40
82.0
 40
83.0
 40
83.0
 40
83.0
 40
84.0
 40
84.0
 40
84.0
 40
85.0
 40
85.0
 40
85.0
 40
86.0
 40
86.0
 40
86.0
 40
87.0
 40
87.0
 40
87.0
 40
88.0
 40
88.0
 40
88.0
 40
89.0
 40
89.0
 40
89.0
 40
90.0
 40
90.0
 40
90.0
 40
91.0
 40
91.0
 40
91.0
 40
92.0
 40
92.0
 40
92.0
 40
93.0
 40
93.0
 40
93.0
 40
94.0
 40
94.0
 40
94.0
 40
95.0
 40
95.0
 40
95.0
 40
96.0
 40
96.0
 40
96.0
 40
97.0
 40
97.0
 40
97.0
 40
98.0
 40
98.0
 40
98.0
 40
99.0
 40
99.0
 40
99.0
 40
100.0
 40
100.0
 40
100.0
 40
101.0
 40
101.0
 40
101.0
 40
102.0
 40
102.0
 40
102.0
 40
103.0
 40
103.0
 40
103.0
 40
104.0
 40
104.0
 40
104.0
 40
105.0
 40
105.0
 40
105.0
 40
106.0
 40
106.0
 40
106.0
 40
107.0
 40
107.0
 40
107.0
 40
108.0
 40
108.0
 40
108.0
 40
109.0
 40
109.0
 40
109.0
 40
110.0
 40
110.0
 40
110.0
 40
111.0
 40
111.0
 40
111.0
 40
112.0
 40
112.0
 40
112.0
 40
113.0
 40
113.0
 40
113.0
 40
114.0
 40
114.0
 40
114.0
 40
115.0
 40
115.0
 40
115.0
 40
116.0
 40
116.0
 40
116.0
 40
117.0
 40
117.0
 40
117.0
 40
118.0
 40
118.0
 40
118.0
 40
119.0
 40
119.0
 40
119.0
 40
120.0
 40
120.0
 40
120.0
 40
121.0
 40
121.0
 40
121.0
 40
122.0
 40
122.0
 40
122.0
 40
123.0
 40
123.0
 40
123.0
 40
124.0
 40
124.0
 40
124.0
 40
125.0
 40
125.0
 40
125.0
 40
126.0
 40
126.0
 40
126.0
 40
127.0
 40
127.0
 40
127.0
 40
128.0
 40
128.0
 40
128.0
 40
129.0
 40
129.0
 40
129.0
 40
130.0
 40
130.0
 40
130.0
 40
131.0
 40
131.0
 40
131.0
 40
132.0
 40
132.0
 40
132.0
 40
133.0
 40
133.0
 40
133.0
 40
134.0
 40
134.0
 40
134.0
 40
135.0
 40
135.0
 40
135.0
 40
136.0
 40
136.0
 40
136.0
 40
137.0
 40
137.0
 40
137.0
 40
138.0
 40
138.0
 40
138.0
 40
139.0
 40
139.0
 40
139.0
 40
140.0
 40
140.0
 40
140.0
 40
141.0
 40
141.0
 40
141.0
 40
142.0
 40
142.0
 40
142.0
 40
143.0
 40
143.0
 40
143.0
 40
144.0
 40
144.0
 40
144.0
 40
145.0
 40
145.0
 40
145.0
 40
146.0
 40
146.0
 40
146.0
 40
147.0
 40
147.0
 40
147.0
 40
148.0
 40
148.0
 40
148.0
 40
149.0
 40
149.0
 40
149.0
 40
150.0
 40
150.0
 40
150.0
 40
151.0
 40
151.0
 40
151.0
 40
152.0
 40
152.0
 40
152.0
 40
153.0
 40
153.0
 40
153.0
 40
154.0
 40
154.0
 40
154.0
 40
155.0
 40
155.0
 40
155.0
 40
156.0
 40
156.0
 40
156.0
 40
157.0
 40
157.0
 40
157.0
 40
158.0
 40
158.0
 40
158.0
 40
159.0
 40
159.0
 40
159.0
 40
160.0
 40
160.0
 40
160.0
 40
161.0
 40
161.0
 40
161.0
 40
162.0
 40
162.0
 40
162.0
 40
163.0
 40
163.0
 40
163.0
 40
164.0
 40
164.0
 40
164.0
 40
165.0
 40
165.0
 40
165.0
 40
166.0
 40
166.0
 40
166.0
 40
167.0
 40
167.0
 40
167.0
 40
168.0
 40
168.0
 40
168.0
 40
169.0
 40
169.0
 40
169.0
 40
170.0
 40
170.0
 40
170.0
 40
171.0
 40
171.0
 40
171.0
 40
172.0
 40
172.0
 40
172.0
 40
173.0
 40
173.0
 40
173.0
 40
174.0
 40
174.0
 40
174.0
 40
175.0
 40
175.0
 40
175.0
 40
176.0
 40
176.0
 40
176.0
 40
177.0
 40
177.0
 40
177.0
 40
178.0
 40
178.0
 40
178.0
 40
179.0
 40
179.0
 40
179.0
 40
180.0
 40
180.0
 40
180.0
 40
181.0
 40
181.0
 40
181.0
 40
182.0
 40
182.0
 40
182.0
 40
183.0
 40
183.0
 40
183.0
 40
184.0
 40
184.0
 40
184.0
 40
185.0
 40
185.0
 40
185.0
 40
186.0
 40
186.0
 40
186.0
 40
187.0
 40
187.0
 40
187.0
 40
188.0
 40
188.0
 40
188.0
 40
189.0
 40
189.0
 40
189.0
 40
190.0
 40
190.0
 40
190.0
 40
191.0
 40
191.0
 40
191.0
 40
192.0
 40
192.0
 40
192.0
 40
193.0
 40
193.0
 40
193.0
 40
194.0
 40
194.0
 40
194.0
 40
195.0
 40
195.0
 40
195.0
 40
196.0
 40
196.0
 40
196.0
 40
197.0
 40
197.0
 40
197.0
 40
198.0
 40
198.0
 40
198.0
 40
199.0
 40
199.0
 40
199.0
 40
200.0
 40
200.0
 40
200.0
 40
201.0
 40
201.0
 40
201.0
 40
202.0
 40
202.0
 40
202.0
 40
203.0
 40
203.0
 40
203.0
 40
204.0
 40
204.0
 40
204.0
 40
205.0
 40
205.0
 40
205.0
 40
206.0
 40
206.0
 40
206.0
 40
207.0
 40
207.0
 40
207.0
 40
208.0
 40
208.0
 40
208.0
 40
209.0
 40
209.0
 40
209.0
 40
210.0
 40
210.0
 40
210.0
 40
211.0
 40
211.0
 40
211.0
 40
212.0
 40
212.0
 40
212.0
 40
213.0
 40
213.0
 40
213.0
 40
214.0
 40
214.0
 40
214.0
 40
215.0
 40
215.0
 40
215.0
 40
216.0
 40
216.0
 40
216.0
 40
217.0
 40
217.0
 40
217.0
 40
218.0
 40
218.0
 40
218.0
 40
219.0
 40
219.0
 40
219.0
 40
220.0
 40
220.0
 40
220.0
 40
221.0
 40
221.0
 40
221.0
 40
222.0
 40
222.0
 40
222.0
 40
223.0
 40
223.0
 40
223.0
 40
223.0
 10
4.926736154053287
 20
38.29407758657726
 10
4.903474584497417
 20
37.99167618407046
 10
5.043044112755524
 20
37.77069177242265
 10
5.205875210568593
 20
37.53807585502182
 10
5.322183169271739
 20
37.36361391697028
 10
5.461752697528937
 20
37.16589074211697
 10
5.485014267083898
 20
36.96816756726912
 10
5.519906676879145
 20
36.64250492796418
 10
5.694368504011436
 20
36.56108971181766
 10
5.961876942128583
 20
36.50293573246472
 10
6.264277679121733
 20
36.4331502473533
 10
6.508524436761945
 20
36.27031981505934
 10
6.58993987474787
 20
35.9446571757544
 10
6.671355534574104
 20
35.64225577323941
 10
6.834186632390811
 20
35.56084055709471
 10
7.136587147541832
 20
35.67714851579785
 10
7.729757559446625
 20
35.89813292743838
 10
8.322928415033857
 20
36.14238035060134
 10
8.91609882693865
 20
36.37499626800673
 10
8.904468208541402
 20
36.30521078289985
 10
8.881206528063558
 20
36.20053432995337
 10
8.86957546598569
 20
36.09585787700962
 10
8.823052105034549
 20
35.67714851579785
 10
8.753267507285273
 20
35.2584409293022
 10
8.76489812568434
 20
34.8513630738471
 10
8.776528744080679
 20
34.42102398159659
 10
9.044037404038136
 20
34.15351532163913
 10
9.439484197416277
 20
34.15351532163913
 10
10.20711654737352
 20
34.15351532163913
 10
10.96311827893624
 20
34.16514682739853
 10
11.73075151625108
 20
34.18840806419394
 10
12.10293662915228
 20
34.20003956994788
 10
12.42859926845904
 20
34.33960876544825
 10
12.68447642265983
 20
34.63037866219929
 10
12.7193691652119
 20
34.66527140475591
 10
12.76589163880635
 20
34.72342538410794
 10
12.80078438136115
 20
34.71179387834854
 10
13.25438559776831
 20
34.63037866219929
 10
13.49863213357094
 20
34.94440979575302
 10
13.77777141192473
 20
35.21191845571047
 10
14.09180254547664
 20
35.5143198582191
 10
14.45235792733911
 20
35.7236727641066
 10
14.91758976214351
 20
35.71204303306786
 10
15.2083596588991
 20
35.7004115273121
 10
15.51076017404921
 20
35.79345824921347
 10
15.84805343175594
 20
35.83998249752858
 10
15.84805343175594
 20
35.83998249752858
 10
15.8945767927089
 20
35.78182851817655
 10
15.92946864790338
 20
35.71204303306786
 10
16.09229996755766
 20
35.45616587886798
 10
16.16208456530603
 20
35.22354996146805
 10
15.96436139045636
 20
34.93278006471337
 10
15.87131466855226
 20
34.78157936345815
 10
15.91783802950613
 20
34.53733371501403
 10
15.90620741110797
 20
34.3279790344086
 10
15.8945767927089
 20
34.17677833315429
 10
15.92946864790338
 20
34.00231639510002
 10
15.88294617430984
 20
33.86274719959965
 10
15.81316157656056
 20
33.64176278795821
 10
15.80153095816149
 20
33.44403783839152
 10
15.8945767927089
 20
33.2230534267419
 10
16.15045394690696
 20
32.66477487003613
 10
16.54590118396482
 20
32.22280427202804
 10
17.01113301877103
 20
31.83898942808355
 10
17.26701017297
 20
31.62963474747539
 10
17.54614945132653
 20
31.55985103708827
 10
17.87181209063237
 20
31.61800501643847
 10
17.97648943093736
 20
31.62963652219514
 10
18.10442800803685
 20
31.57148254284584
 10
18.20910534834002
 20
31.51332856349472
 10
18.34867454383766
 20
31.43191334734729
 10
18.45335188414174
 20
31.26908114033176
 10
18.59292196699789
 20
31.23419017250035
 10
18.80227576024481
 20
31.17603619314741
 10
18.94184495574427
 20
31.08298947123876
 10
19.06978442020227
 20
30.93178876998718
 10
19.2442463582538
 20
30.72243408938266
 10
19.46523076989979
 20
30.58286489388411
 10
19.74437093561573
 20
30.62938736747492
 10
19.95372561622116
 20
30.66428011002972
 10
20.04677233812708
 20
30.60612613068133
 10
20.10492631747729
 20
30.39677145007136
 10
20.2328657819362
 20
29.95480085206145
 10
20.50037266717391
 20
29.82686316232321
 10
20.9539747709432
 20
29.93153961526787
 10
21.0819142354012
 20
29.96643235782085
 10
21.25637617345274
 20
29.93153961526787
 10
21.3843138631928
 20
29.87338563591584
 10
21.67508375994657
 20
29.74544617145784
 10
21.94259241990403
 20
29.57098423340267
 10
22.22173081090114
 20
29.44304654366169
 10
22.40782425471116
 20
29.3616313275179
 10
22.50086920189824
 20
29.24532336881475
 10
22.5241322134134
 20
29.05922992501019
 10
22.55902495596456
 20
28.79172126504818
 10
22.58228619276269
 20
28.53584411084921
 10
22.58228619276269
 20
28.26833545088994
 10
22.57065468700603
 20
27.90778006903201
 10
22.6171789353175
 20
27.53559495612717
 10
22.30314780176559
 20
27.24482505937885
 10
22.25662532817296
 20
27.20993231681859
 10
22.23336231665598
 20
27.1167702382063
 10
22.23336231665598
 20
27.05861625885518
 10
22.26825505921079
 20
26.75621485634656
 10
22.32640903856372
 20
26.46544495958915
 10
22.57065468700603
 20
26.25620918512686
 10
22.9777325424584
 20
25.90728530902743
 10
23.45459588302401
 20
25.69793240313993
 10
23.98961142822009
 20
25.65140638010962
 10
24.22222734562274
 20
25.62814336859083
 10
24.46647476878206
 20
25.65140638010962
 10
24.71072041722618
 20
25.63977487434931
 10
25.02475155077627
 20
25.62802623716561
 10
25.12942977843704
 20
25.47694444205263
 10
25.04801278757077
 20
25.18617454529885
 10
25.02475155077627
 20
25.11638906019471
 10
25.00149031397814
 20
25.03497561875884
 10
24.96659757142334
 20
24.96519013365651
 10
24.66419616891471
 20
24.348759372313
 10
24.8502896127211
 20
23.94168151685699
 10
25.48998338558158
 20
23.74395656729212
 10
25.61792285004049
 20
23.6975512251247
 10
25.80401451913167
 20
23.55786312348209
 10
25.80401451913167
 20
23.4649353077275
 10
25.82727575592799
 20
22.9764404614034
 10
26.03663043653614
 20
22.45305464724697
 10
25.65281381787645
 20
21.9993371867713
 10
25.606291344282
 20
21.95293184460206
 10
25.55976709596871
 20
21.89477786525276
 10
25.5481373649327
 20
21.82487524871794
 10
25.52487612813638
 20
21.69693578425904
 10
25.47835187982491
 20
21.53410535196235
 10
25.52487612813638
 20
21.429546030442
 10
25.58303010748568
 20
21.30148943455788
 10
25.58303010748568
 20
21.23182108088258
 10
25.50161489134007
 20
21.12702749650998
 10
25.32715295328671
 20
20.89441157910551
 10
25.21084499458448
 20
20.66179566169922
 10
25.18758375778816
 20
20.35939425919059
 10
25.15269101523518
 20
19.74296349785072
 10
25.07127579908774
 20
19.12652918706772
 10
25.02475332549511
 20
18.51009842572967
 10
25.0014920886988
 20
18.20769702321923
 10
24.98986058294031
 20
17.89366766438252
 10
25.0014920886988
 20
17.59138339329365
 10
25.01312359445365
 20
17.33550446437948
 10
25.15269278995402
 20
17.11440292130646
 10
25.40856994415117
 20
17.05624894195716
 10
25.75749382025606
 20
16.98646345684392
 10
26.11804920211944
 20
16.93994098325129
 10
26.46697307822433
 20
16.93994098325129
 10
27.40906825359343
 20
16.93994098325129
 10
28.10691600580139
 20
16.10263939225842
 10
27.94408379878951
 20
15.17217572264599
 10
27.89756132519688
 20
14.92781116806145
 10
27.9091910562347
 20
14.66042141424623
 10
27.92082256199501
 20
14.40442535389593
 10
27.93245406774804
 20
14.07876448931529
 10
28.03713052069361
 20
14.00909613562544
 10
28.36279316000218
 20
14.06725011497838
 10
28.51399386125922
 20
14.09039599507378
 10
28.66519456251262
 20
14.13703560008435
 10
28.81639348905082
 20
14.14854997441762
 10
29.18857860194839
 20
14.17181298593277
 10
29.45608726190767
 20
13.93919706853012
 10
29.40956478831504
 20
13.56701018090826
 10
29.36304231472241
 20
13.14830081969922
 10
29.28162532385613
 20
12.71796350216573
 10
29.14205612835758
 20
12.32263073446484
 10
28.99085542710236
 20
11.88054477974038
 10
28.95596268454756
 20
11.89228986749004
 10
29.33977930320907
 20
11.62466585082257
 10
29.72359592186694
 20
11.35715896558213
 10
29.87479662312035
 20
10.98497207796208
 10
29.81664264377105
 20
10.53148888034411
 10
29.78174990121443
 20
10.22897034640664
 10
29.70033468506881
 20
9.938200449647411
 10
29.68870317931214
 20
9.635916178565822
 10
29.67707167355366
 20
9.170684343760513
 10
29.3630405400072
 20
8.926436920597553
 10
29.01411666389868
 20
8.810128961898954
 10
28.07202148852957
 20
8.519359065141543
 10
27.35091249952529
 20
7.926070634444841
 10
26.65306474731369
 20
7.28637686159891
 10
26.22272565506319
 20
6.891047643322963
 10
25.85054054216016
 20
6.448958139168099
 10
25.4550924177438
 20
6.018737953061645
 10
25.23410800609963
 20
5.78612203566081
 10
25.22247650034114
 20
5.634805977690121
 10
25.3969384383945
 20
5.355781168686008
 10
25.44346091198895
 20
5.27436417782701
 10
25.48998516030042
 20
5.19295073639114
 10
25.54813913964972
 20
5.12316525128881
 10
25.82727753064682
 20
4.7624927379984
 10
26.18783291250838
 20
4.460208466913173
 10
26.07152495380797
 20
3.913563190677451
 10
26.02500248021533
 20
3.692695910462135
 10
26.18783291250838
 20
3.587902326093172
 10
26.40881732415255
 20
3.657684261756003
 10
26.50186404606029
 20
3.680947273278434
 10
26.58327926220954
 20
3.72758687829446
 10
26.66469447835334
 20
3.785740857643759
 10
26.85078792216518
 20
3.913680322104483
 10
27.00198684870338
 20
3.843894836993059
 10
27.11829480740198
 20
3.704323866782943
 10
27.57189513645062
 20
3.134415579032066
 10
28.0836512195674
 20
2.645920732709783
 10
28.65355950731828
 20
2.215583415178116
 10
28.90943666151907
 20
2.029372839935604
 10
29.10715983636692
 20
1.785242548203314
 10
29.15368408467839
 20
1.471213189377522
 10
29.18857682723319
 20
1.203706304137086
 10
29.35140725952806
 20
1.18044329262375
 10
29.5607619401344
 20
1.203706304137086
 10
29.75848511498043
 20
1.226969315646784
 10
29.94457855879045
 20
1.28512329500154
 10
30.15393323939861
 20
1.331645768594171
 10
30.28187270386115
 20
1.064138883359192
 10
30.47959587870719
 20
1.029244366083731
 10
30.66568754779655
 20
1.261860283486385
 10
30.74710276394762
 20
1.366536736433773
 10
30.84014948585173
 20
1.48284469513419
 10
30.86341072264622
 20
1.610784159591276
 10
30.99135018710695
 20
2.134169973745884
 10
31.23559583554925
 20
2.564510840717048
 10
31.63104395996561
 20
2.936694178901234
 10
32.01474344719463
 20
3.297249560766431
 10
32.35215294897171
 20
3.704327416216984
 10
32.72433806186928
 20
4.111405271671174
 10
32.74759929866741
 20
4.088142260159657
 10
32.7941235469807
 20
4.064882798074905
 10
32.82889915810301
 20
4.029988280810358
 10
33.11966905486224
 20
3.72758687829446
 10
33.45696142520319
 20
3.750967021238466
 10
33.67806474299687
 20
4.099890897343357
 10
33.80600420745395
 20
4.309243803232675
 10
33.93382654048946
 20
4.518600258559673
 10
34.03862012486206
 20
4.751216175960508
 10
34.22471356867027
 20
5.146662525650754
 10
34.49222045390525
 20
5.437432422413622
 10
34.84114433001196
 20
5.693311351324155
 10
35.0853917531731
 20
5.879521926563029
 10
35.29462752763175
 20
6.11213784397296
 10
35.46908946568328
 20
6.356268135697974
 10
35.74822785668221
 20
6.763345991153983
 10
35.84127635330697
 20
7.263468793802531
 10
35.89943033265263
 20
7.74033213436087
 10
35.95758431200738
 20
8.159041495571728
 10
35.98084732352072
 20
8.589378813105213
 10
36.02736979711881
 20
9.007971042896315
 10
36.03911843430069
 20
9.170801475189364
 10
36.07389227070598
 20
9.333749038909446
 10
36.09727241364817
 20
9.484951514883505
 10
36.17868940451626
 20
10.00833732903629
 10
36.62065822780642
 20
10.41541518449412
 10
36.5507556112716
 20
10.99695497800531
 10
36.66706356997383
 20
10.93880099865237
 10
36.74848056084011
 20
10.88064701930671
 10
36.84152550802537
 20
10.83412454571408
 10
37.00435594032388
 20
10.76433906060083
 10
37.1322954047755
 20
10.78771920353938
 10
37.21371239564178
 20
10.97369551592601
 10
37.38817433369877
 20
11.39240487713869
 10
37.760361221317
 20
11.59012627726952
 10
38.15592470244519
 20
11.70643423597357
 10
38.46995761071048
 20
11.81111068891551
 10
38.73746449594728
 20
11.95079879056175
 10
38.99334342486509
 20
12.16003456501676
 10
39.2841133216225
 20
12.40428198818154
 10
39.58651472413112
 20
12.63689790558055
 10
40.01685204167006
 20
12.61363489406358
 10
40.64479717733957
 20
12.59037188254842
 10
41.22633697084893
 20
12.74157435852976
 10
41.66842647500016
 20
13.23006565541073
 10
42.05224131894283
 20
13.64877501662522
 10
42.4593191743952
 20
13.71856050173119
 10
42.94781402071749
 20
13.43941856129641
 10
43.26172979756302
 20
13.26495662325033
 10
43.61065367366609
 20
13.24169361173699
 10
43.97132263751701
 20
13.28821963476003
 10
44.66917038972497
 20
13.39277895627856
 10
45.27397319474585
 20
13.6952974902124
 10
45.84388148249855
 20
14.09062670849016
 10
46.2858503057887
 20
14.40465961675363
 10
46.6813002049239
 20
14.76532858060636
 10
46.91391612232837
 20
15.27696930701313
 10
47.06511504886112
 20
15.61426167735954
 10
47.29773096626923
 20
15.88177211203765
 10
47.65828634812897
 20
16.02133953281918
 10
47.7745943068312
 20
16.06774487497751
 10
47.89090226553344
 20
16.11438448000081
 10
47.97220212497086
 20
16.1958014708689
 10
48.42580245401587
 20
16.7424502965423
 10
48.87951991449881
 20
17.30072707853287
 10
49.32149228722119
 20
17.87051823485308
 10
49.54235956744014
 20
18.16128813161049
 10
49.43780024592343
 20
18.51021200771356
 10
49.46106325744222
 20
18.83599000373033
 10
49.47269476319889
 20
19.13839140624623
 10
49.50746859960418
 20
19.46393513940711
 10
49.7749790342823
 20
19.63839707745683
 10
50.2402108690876
 20
19.95242998572394
 10
50.47282678648844
 20
20.40614744620507
 10
50.65903736172368
 20
20.89452161165718
 10
50.74045435259177
 20
21.09224656122751
 10
50.74045435259177
 20
21.32486247862653
 10
50.77534532042773
 20
21.53421538451948
 10
50.76359668324585
 20
21.56922348377702
 10
50.84513080553916
 20
21.59236936386515
 10
50.85676231129764
 20
21.62737746312814
 10
50.90316765346142
 20
21.7668313019185
 10
50.93806217073325
 20
21.91814735988555
 10
50.9613216328089
 20
22.06934628642011
 10
51.04273862367518
 20
22.48805564763643
 10
51.12415206510741
 20
22.89513350309062
 10
51.1939375502152
 20
23.3138428643033
 10
51.27535454107965
 20
23.81396566694457
 10
51.34513647674794
 20
24.3140920190217
 10
51.41492196186118
 20
24.81409769023776
 10
51.48470744696897
 20
25.27932952504307
 10
51.50796690904463
 20
25.74456135984656
 10
51.60101540566757
 20
26.2097931946555
 10
51.65916938502232
 20
26.53545405924342
 10
51.84537996025756
 20
26.82622395599901
 10
52.18255519917693
 20
26.93090395837862
 10
53.27584930108605
 20
27.30308907127983
 10
54.03185103264332
 20
28.01256832924264
 10
54.35751544666709
 20
29.11749393690752
 10
54.52034587896196
 20
29.65251125682425
 10
54.83437878723453
 20
29.90838841102322
 10
55.35776460139095
 20
30.00143513292824
 10
55.95105303208038
 20
30.10611158587199
 10
56.49769830831247
 20
30.31546626648196
 10
56.84662218441736
 20
30.85048358639324
 10
56.93966713160808
 20
31.0016842876521
 10
56.99782111095919
 20
31.17614622569999
 10
57.11412906966143
 20
31.30408391544006
 10
57.41653047217005
 20
31.62974655474954
 10
57.74207420533276
 20
31.93214618254297
 10
58.05622424503235
 20
32.24617909081098
 10
58.80059447082931
 20
32.97891958557375
 10
59.0797328618246
 20
33.83959777007749
 10
58.82397461377332
 20
34.86310816159221
 10
58.7308125351592
 20
35.21203203769619
 10
58.68440364355956
 20
35.56095591380563
 10
58.62624966420663
 20
35.92151129566446
 10
58.57972719061581
 20
36.21228119241823
 10
58.60298665268965
 20
36.52631232597196
 10
58.52157321126469
 20
36.80545249168244
 10
58.33547976745467
 20
37.42188502774479
 10
57.98655589134978
 20
37.91037809934915
 10
57.27707663338333
 20
38.02668605805047
 10
57.07946881524367
 20
38.06157880060255
 10
56.89326178944248
 20
38.11973277995367
 10
56.69553683987579
 20
38.14299401674998
 10
56.26531310433347
 20
38.21277950186141
 10
55.90464414047892
 20
38.39887117094895
 10
55.63713370580626
 20
38.72453381026025
 10
55.17190187100095
 20
39.31770510952538
 10
54.71830154194868
 20
39.93413587086707
 10
54.28796067497933
 20
40.55056840692851
 10
54.00882228398405
 20
40.94601475662785
 10
53.79946582865523
 20
41.37635562360083
 10
53.22944040948096
 20
41.42287809718982
 10
53.15965492437135
 20
41.42287809718982
 10
53.07824148294276
 20
41.52755455013448
 10
53.0317154599179
 20
41.60897154100076
 10
52.79909954250616
 20
42.01604939645676
 10
52.4501756664049
 20
42.22540407706038
 10
51.99669246878511
 20
42.27192655065301
 10
51.7523279141933
 20
42.29518778744932
 10
51.48493816038354
 20
42.31844991160688
 10
51.26395374874301
 20
42.24866531385851
 10
50.62425997588252
 20
42.03931063325126
 10
50.0427201823768
 20
42.22540407706038
 10
49.47281189462774
 20
42.44638848870636
 10
49.24019597722327
 20
42.52780370485561
 10
49.00758005981697
 20
42.67900440611083
 10
48.84474962752574
 20
42.85346634416328
 10
48.63539672163279
 20
43.07445164316596
 10
48.3795177927168
 20
43.17912898346731
 10
48.100496533154
 20
43.21402083866542
 10
47.5653620818066
 20
43.29543605481194
 10
47.065356410596
 20
43.14423624091705
 10
46.5767444328485
 20
42.95814368446645
 10
46.33249700968736
 20
42.86509696256235
 10
46.07662163020359
 20
42.77205112801585
 10
45.79759682119766
 20
42.67900440611083
 10
45.92553628565474
 20
43.17912898346731
 10
46.0418442443588
 20
43.63272931251777
 10
46.16966657738885
 20
44.08633052892583
 10
46.22782055673997
 20
44.30731582793214
 10
46.20467467665185
 20
44.42362378663074
 10
45.97205875925101
 20
44.51666962117633
 10
45.62313488314794
 20
44.66787032243337
 10
45.29735688712572
 20
44.86559349728032
 10
44.97169247310376
 20
45.0633166721309
 10
44.80897917223592
 20
45.16799401243497
 10
44.68092257634635
 20
45.31919382633077
 10
44.50646063829663
 20
45.42387116663303
 10
43.89002987695494
 20
45.79605627953697
 10
43.21544158682627
 20
46.00541096014149
 10
42.50596232885255
 20
46.14498015564095
 10
41.71506962946296
 20
46.29618085689526
 10
40.97081298564808
 20
46.17987289819393
 10
40.3193741250434
 20
45.66811770243385
 10
39.99371326045366
 20
45.41224054823397
 10
39.66804884642988
 20
45.16799312507646
 10
39.35401948759318
 20
44.9353772076729
 10
39.24934303465488
 20
45.17962374347553
 10
39.09814055867537
 20
45.38897842408096
 10
38.91205066430302
 20
45.55180974373343
 10
39.02835862300708
 20
45.5634403621325
 10
39.1562980874678
 20
45.59833310468548
 10
39.27260604617004
 20
45.64485646563844
 10
39.50522196356906
 20
45.73790318754527
 10
39.73783788097171
 20
45.8425796404872
 10
39.93556283054022
 20
45.98214972334699
 10
40.28448670664147
 20
46.24965838330445
 10
40.63341058275
 20
46.52879677429701
 10
40.94744349101711
 20
46.84282879520924
 10
41.13353693483077
 20
47.02892135165894
 10
41.08701446123632
 20
47.18012205291325
 10
40.84276703807336
 20
47.29643001161639
 10
40.16818229738419
 20
47.62209265092406
 10
39.4470715336538
 20
47.75003122802536
 10
38.70281843928024
 20
47.75003122802536
 10
38.35389456317716
 20
47.75003122802536
 10
38.06300753499454
 20
47.61046203252408
 10
37.79550064975774
 20
47.4476307128707
 10
37.51647939019131
 20
47.27316877482008
 10
37.27211483560131
 20
47.06381409421283
 10
36.98134493884754
 20
46.90098366191614
 10
36.74872902143943
 20
46.77304508481939
 10
36.50448159828375
 20
46.64510650771717
 10
36.15555772217704
 20
46.72652172386461
 10
36.26011704369375
 20
46.94750702287274
 10
36.31827102304487
 20
47.1684923218736
 10
36.44632761893808
 20
47.34295425992605
 10
36.96971343308905
 20
48.06406324893214
 10
37.62103871170621
 20
48.63397242404426
 10
38.4002999053464
 20
49.06431240365418
 10
38.62128431698693
 20
49.1806203623546
 10
38.80737776079513
 20
49.33182106361164
 10
38.76097241863317
 20
49.6225905166848
 10
38.72608145079175
 20
49.83194475361051
 10
38.80737776079513
 20
49.97151439278878
 10
38.97032532452431
 20
50.08782235148828
 10
39.09826478897958
 20
50.18086862971541
 10
39.21457274768363
 20
50.28554597001857
 10
39.3774031799785
 20
50.42511560919684
 10
39.22620425344212
 20
50.50653126902398
 10
39.13303862538487
 20
50.57631586677417
 10
39.01673066668991
 20
50.61120816564835
 10
38.79586338646732
 20
50.69262382547458
 10
38.53986732612066
 20
50.72751612434968
 10
38.33063155166383
 20
50.83219346465194
 10
38.19106058144644
 20
50.9019780624003
 10
38.05149316066672
 20
51.04154770157857
 10
38.01659864339308
 20
51.18111734075592
 10
37.94669602685826
 20
51.44862555703457
 10
37.97007616980045
 20
51.73939545379017
 10
37.90029068469448
 20
52.01853473214396
 10
37.76071971447527
 20
52.65822850500081
 10
37.58625777642374
 20
53.29792227785947
 10
37.43505884988735
 20
53.87946207136793
 10
37.14428895313358
 20
54.07718568989549
 10
36.95807837789289
 20
53.96087773119325
 10
36.79536507702687
 20
53.77478495290325
 10
36.63253464473564
 20
53.60032301484989
 10
36.44644120092016
 20
53.44912275727529
 10
36.29524227438742
 20
53.26302997898711
 10
36.22533965784714
 20
53.16998370076089
 10
36.16718567849784
 20
53.03041406158172
 10
36.19056582144367
 20
52.9141061028804
 10
36.2370882950363
 20
52.56518222677369
 10
36.2370882950363
 20
52.50702824742621
 10
35.91142743044293
 20
52.42561258760088
 10
35.62065753369279
 20
52.34419692777283
 10
35.44619559563762
 20
52.16973498972038
 10
35.35315064845418
 20
51.91385739184352
 10
35.28336516334821
 20
51.7277648353911
 10
35.14379774256486
 20
51.634718113487
 10
34.95782143018187
 20
51.5881951962092
 10
34.43443561602908
 20
51.46025661911426
 10
33.9226813076275
 20
51.49514891798754
 10
33.39929549347107
 20
51.56493351573408
 10
33.00396450048174
 20
51.62308749508702
 10
32.64329376191381
 20
51.71613377331323
 10
32.4106778445057
 20
52.07668871149599
 10
32.3642707276249
 20
52.15810437132222
 10
32.2479627689263
 20
52.2162583506697
 10
32.16643042134638
 20
52.22788896906877
 10
31.82913805099997
 20
52.2860429484208
 10
31.49184390593837
 20
52.32093524729498
 10
31.15455153559014
 20
52.3790892266461
 10
30.91030411243082
 20
52.42561258760088
 10
30.77073491693227
 20
52.34419692777283
 10
30.6311657214319
 20
52.13484269084438
 10
30.38691829827076
 20
51.73939545379017
 10
29.80537850476685
 20
51.29742529945815
 10
29.16568473190637
 20
51.55330289733774
 10
28.75860687645036
 20
51.71613421699203
 10
28.32826778419985
 20
51.65798023764
 10
27.90955842298899
 20
51.51841059846083
 10
27.51411207328965
 20
51.39047202136317
 10
27.10703421783546
 20
51.29742529945815
 10
26.69995636237763
 20
51.22764070170888
 10
26.40918646562386
 20
51.16948672235776
 10
26.11841656887191
 20
51.21601008330981
 10
25.88580065146925
 20
51.43699493863733
 10
25.38567607410732
 20
51.90222677344536
 10
25.09490617735537
 20
52.48376656694836
 10
25.01349096120612
 20
53.1699834789224
 10
24.94370547610015
 20
53.73989243218966
 10
25.16469166246134
 20
54.22838594747191
 10
25.45546155921511
 20
54.68198694204057
 10
25.7694926927652
 20
55.15884961708343
 10
25.75786296172737
 20
55.21700359643273
 10
25.32752209475802
 20
55.55429663230007
 10
25.11816741415169
 20
55.71712773011495
 10
25.03675219800425
 20
55.90322050840496
 10
25.09490617735537
 20
56.15909799536621
 10
25.11816741415169
 20
56.26377516928824
 10
25.18795289926129
 20
56.36845234321027
 10
25.16469166246134
 20
56.44986789211816
 10
25.14143042566502
 20
56.57780663559788
 10
25.08327644631572
 20
56.74063778887285
 10
24.9902297244098
 20
56.78716098344557
 10
24.72272106445416
 20
56.92673053943236
 10
24.51336638384601
 20
56.84531496279578
 10
24.30401347795851
 20
56.5545450660411
 10
24.01324358120473
 20
56.17072883560286
 10
23.75736642700576
 20
55.7403894105928
 10
23.23398061284752
 20
55.65897375076202
 10
22.86179549994631
 20
55.60081977141363
 10
22.47797888128844
 20
55.5659273616202
 10
22.09416226263056
 20
55.53103495182404
 10
22.00111554072646
 20
55.51940411158739
 10
21.90806881882236
 20
55.55429652138082
 10
21.81502387163528
 20
55.54266579206251
 10
21.52425397488332
 20
55.53103495182404
 10
21.37305327362628
 20
55.33331144421481
 10
21.23348407812591
 20
55.11232636705063
 10
20.98923665496659
 20
54.70524840067628
 10
20.88456020202284
 20
54.69361778227722
 10
20.53563632591795
 20
55.01927997790608
 10
20.50074358336406
 20
55.04254154746013
 10
20.47748234656683
 20
55.08906479749476
 10
20.44258960401385
 20
55.10069552681307
 10
20.12855847046194
 20
55.26352662462705
 10
19.8261570679515
 20
55.42635783336118
 10
19.51212593440323
 20
55.55429663230007
 10
19.43071071825398
 20
55.58918904209622
 10
19.25624878020153
 20
55.50777349318741
 10
19.19809480085041
 20
55.42635783336118
 10
18.98874012024498
 20
55.13558793660741
 10
18.98874012024498
 20
54.79829490074098
 10
19.07015533639151
 20
54.46100186487547
 10
19.18646329509284
 20
54.01903171054619
 10
19.39581797569917
 20
53.68173845283945
 10
19.84941830474781
 20
53.47238421591192
 10
20.24486465444625
 20
53.28629143762282
 10
20.22160341765084
 20
52.80942876257814
 10
19.84941830474781
 20
52.60007452565151
 10
19.7331103460474
 20
52.53028992790496
 10
19.59354115054794
 20
52.49539718534652
 10
19.47723319184752
 20
52.42561258760088
 10
18.68633871773272
 20
51.97201137119009
 10
17.89544513097917
 20
51.51841059846083
 10
17.10455065686438
 20
51.0531787636537
 10
16.94171933721191
 20
50.94850142335235
 10
16.79051952331429
 20
50.94850142335235
 10
16.62768820366091
 20
51.01828646478407
 10
16.3252876885108
 20
51.1578561039596
 10
16.03451779175521
 20
51.16948672235776
 10
15.75537851339868
 20
50.96013248543295
 10
15.72048577084479
 20
50.92524018655786
 10
15.61580931790104
 20
50.92524018655786
 10
15.5692859569499
 20
50.96013248543295
 10
15.20873146244503
 20
51.20437902123376
 10
14.91796156569217
 20
51.49514891798754
 10
14.83654546218531
 20
51.96038075279193
 10
14.76676086443695
 20
52.36745860824794
 10
14.56903680222786
 20
52.66985912339806
 10
14.12706709157919
 20
52.77453646370304
 10
13.82466657642817
 20
52.84432106145232
 10
13.55715791647071
 20
52.77453646370304
 10
13.27801863811419
 20
52.68149018547774
 10
12.88257140105725
 20
52.55355160837917
 10
12.49875566975606
 20
52.5419205463013
 10
12.08004630854339
 20
52.60007452565151
 10
11.78927641179143
 20
52.64659788660174
 10
11.48687589663768
 20
52.63496682452569
 10
11.19610599988573
 20
52.60007452565151
 10
10.99838238135544
 20
52.57681284517366
 10
10.87044380425596
 20
52.41398196919909
 10
10.84718212378084
 20
52.20462728859457
 10
10.8239204433039
 20
51.98364198958916
 10
10.96349008248126
 20
51.85570341248786
 10
11.14958263893368
 20
51.77428775266071
 10
11.27752121603135
 20
51.71613377331323
 10
11.41709129888932
 20
51.6812414744345
 10
11.51013713343491
 20
51.5881951962092
 10
11.60318385534174
 20
51.50677953638206
 10
11.68459907148826
 20
51.36720989720834
 10
11.68459907148826
 20
51.26253300058306
 10
11.68459907148826
 20
51.18111734075592
 10
11.55666049438696
 20
51.06480938205368
 10
11.46361377248104
 20
51.02991708318223
 10
11.32404457698613
 20
50.98339372222654
 10
11.16121325733093
 20
50.97176310382747
 10
11.01001255607571
 20
50.97176310382747
 10
10.46336506144235
 20
50.94850142335235
 10
10.20748746356367
 20
50.61120860932533
 10
10.42847276256725
 20
50.11108403196704
 10
10.56804240174461
 20
49.79705245473724
 10
10.76576602027399
 20
49.4946519395844
 10
10.98675087559786
 20
49.22714372330847
 10
11.39382828737598
 20
48.70375790915205
 10
11.44035164832712
 20
48.21526483754951
 10
11.06816653542683
 20
47.6802475176346
 10
10.8588122985002
 20
47.37784700248267
 10
10.66108867997173
 20
47.06381498157225
 10
10.77739663867214
 20
46.65673712611624
 10
10.80065831914726
 20
46.57532190997154
 10
10.76576602027399
 20
46.47064456966473
 10
10.71924265932194
 20
46.38922846615878
 10
10.55641133966583
 20
46.0403045900548
 10
10.44010338096632
 20
45.67975009555357
 10
10.45173444304419
 20
45.27267224009938
 10
10.45173444304419
 20
45.17962551819255
 10
10.41684214417091
 20
45.07494906524971
 10
10.38194984529491
 20
44.98190234334288
 10
10.3237958659447
 20
44.77254766273381
 10
10.21911852564153
 20
44.56319386949235
 10
10.20748790724247
 20
44.35383918888238
 10
10.17259560836828
 20
43.84208399312683
 10
9.951610309364696
 20
43.65599143667532
 10
9.47474785615941
 20
43.80719213792872
 10
9.02114663975226
 20
43.95839283918667
 10
8.625699846375028
 20
43.88860735407707
 10
8.218621990919019
 20
43.6676229424329
 10
8.079052351741666
 20
43.5978383446818
 10
7.90459041368922
 20
43.58620772628547
 10
7.741759537713733
 20
43.57457622052789
 10
7.555666981264949
 20
43.57457622052789
 10
7.369573981133726
 20
43.60946896307996
 10
7.171850584445565
 20
43.63273019987719
 10
7.125327445332005
 20
43.37685304567822
 10
6.950865507280469
 20
43.27217570537232
 10
6.718249589878724
 20
43.23728296282297
 10
6.660095610525786
 20
43.22565234442391
 10
6.613572471414045
 20
43.19075960186547
 10
6.567049332301394
 20
43.15586774667372
 10
5.822678440979871
 20
42.64411255091454
 10
5.555170113781969
 20
41.85321896415917
 10
5.357446606173653
 20
41.02743174749139
 10
5.299292626825263
 20
40.80644733584722
 10
5.287661786585886
 20
40.59709265523907
 10
5.02015357030632
 20
40.46915319078107
 10
4.845691632255694
 20
40.38773797463546
 10
4.694491263759119
 20
40.20164453082452
 10
4.578183305056882
 20
40.02718259277299
 10
4.287413408304019
 20
39.59684350052339
 10
4.299044193083319
 20
39.28281236696785
 10
4.62470649963052
 20
38.87573451151547
 10
4.833689764906921
 20
38.7709409271456
 10
4.949997723610068
 20
38.56170337796539
 10
4.926736154053287
 20
38.29407758657726
 97
        0
 97
        0
 75
     2
 76
     1
 98
        0
  0
ENDBLK
  5
4E
330
4B
100
AcDbEntity
  8
0
100
AcDbBlockEnd
  0
ENDSEC
  0
SECTION
  2
ENTITIES
  0
INSERT
  5
42
330
1F
100
AcDbEntity
  8
Camada 1
100
AcDbBlockReference
  2
block 2
 10
0.0
 20
0.0
 30
0.0
  0
INSERT
  5
46
330
1F
100
AcDbEntity
  8
Camada 1
100
AcDbBlockReference
  2
block 3
 10
0.0
 20
0.0
 30
0.0
  0
SPLINE
  5
49
330
1F
100
AcDbEntity
  8
Camada 1
370
     0
100
AcDbSpline
210
0.0
220
0.0
230
1.0
 70
    11
 71
     3
 72
    17
 73
    13
 74
     0
 42
0.0000000001
 43
0.0000000001
 12
1.0
 22
0.0
 32
0.0
 13
1.0
 23
0.0
 33
0.0
 40
0.0
 40
0.0
 40
0.0
 40
0.0
 40
1.0
 40
1.0
 40
1.0
 40
2.0
 40
2.0
 40
2.0
 40
3.0
 40
3.0
 40
3.0
 40
4.0
 40
4.0
 40
4.0
 40
4.0
 10
30.0
 20
60.0
 30
0.0
 10
46.56854248046875
 20
60.0
 30
0.0
 10
60.0
 20
46.56854248046875
 30
0.0
 10
60.0
 20
30.0
 30
0.0
 10
60.0
 20
13.43145751953125
 30
0.0
 10
46.56854248046875
 20
0.0
 30
0.0
 10
30.0
 20
0.0
 30
0.0
 10
13.43145751953125
 20
0.0
 30
0.0
 10
0.0
 20
13.43145751953125
 30
0.0
 10
0.0
 20
30.0
 30
0.0
 10
0.0
 20
46.56854248046875
 30
0.0
 10
13.43145751953125
 20
60.0
 30
0.0
 10
30.0
 20
60.0
 30
0.0
  0
HATCH
  5
4A
330
1F
100
AcDbEntity
  8
Camada 1
 62
   152
420
    24249
100
AcDbHatch
 10
0.0
 20
0.0
 30
0.0
210
0.0
220
0.0
230
1.0
  2
SOLID
 70
     1
 71
     0
 91
        1
 92
        1
 93
        1
 72
     4
 94
        3
 73
     0
 74
     1
 95
       17
 96
       13
 40
0.0
 40
0.0
 40
0.0
 40
0.0
 40
1.0
 40
1.0
 40
1.0
 40
2.0
 40
2.0
 40
2.0
 40
3.0
 40
3.0
 40
3.0
 40
4.0
 40
4.0
 40
4.0
 40
4.0
 10
30.0
 20
60.0
 10
46.56854248046875
 20
60.0
 10
60.0
 20
46.56854248046875
 10
60.0
 20
30.0
 10
60.0
 20
13.43145751953125
 10
46.56854248046875
 20
0.0
 10
30.0
 20
0.0
 10
13.43145751953125
 20
0.0
 10
0.0
 20
13.43145751953125
 10
0.0
 20
30.0
 10
0.0
 20
46.56854248046875
 10
13.43145751953125
 20
60.0
 10
30.0
 20
60.0
 97
        0
 97
        0
 75
     2
 76
     1
 98
        0
  0
INSERT
  5
4C
330
1F
100
AcDbEntity
  8
Camada 1
100
AcDbBlockReference
  2
block 4
 10
0.0
 20
0.0
 30
0.0
  0
SPLINE
  5
51
330
1F
100
AcDbEntity
  8
Camada 1
370
     0
100
AcDbSpline
210
0.0
220
0.0
230
1.0
 70
    11
 71
     3
 72
    26
 73
    22
 74
     0
 42
0.0000000001
 43
0.0000000001
 12
1.0
 22
0.0
 32
0.0
 13
1.0
 23
0.0
 33
0.0
 40
0.0
 40
0.0
 40
0.0
 40
0.0
 40
1.0
 40
1.0
 40
1.0
 40
2.0
 40
2.0
 40
2.0
 40
3.0
 40
3.0
 40
3.0
 40
4.0
 40
4.0
 40
4.0
 40
5.0
 40
5.0
 40
5.0
 40
6.0
 40
6.0
 40
6.0
 40
7.0
 40
7.0
 40
7.0
 40
7.0
 10
42.41668701171875
 20
35.88165283203125
 30
0.0
 10
42.41668701171875
 20
42.574462890625
 30
0.0
 10
37.0440673828125
 20
48.0
 30
0.0
 10
30.41668701171875
 20
48.0
 30
0.0
 10
23.78924560546875
 20
48.0
 30
0.0
 10
18.41668701171875
 20
42.574462890625
 30
0.0
 10
18.41668701171875
 20
35.88165283203125
 30
0.0
 10
18.41668701171875
 20
34.04364013671875
 30
0.0
 10
18.8218994140625
 20
32.3011474609375
 30
0.0
 10
19.5469970703125
 20
30.7403564453125
 30
0.0
 10
22.3978271484375
 20
24.04425048828125
 30
0.0
 10
30.451171875
 20
12.0
 30
0.0
 10
30.451171875
 20
12.0
 30
0.0
 10
30.451171875
 20
12.0
 30
0.0
 10
39.782470703125
 20
26.6114501953125
 30
0.0
 10
41.69281005859375
 20
31.69171142578125
 30
0.0
 10
41.69281005859375
 20
31.69171142578125
 30
0.0
 10
41.6800537109375
 20
31.69171142578125
 30
0.0
 10
41.6800537109375
 20
31.69171142578125
 30
0.0
 10
42.156494140625
 20
32.9974365234375
 30
0.0
 10
42.41668701171875
 20
34.40887451171875
 30
0.0
 10
42.41668701171875
 20
35.88165283203125
 30
0.0
  0
SPLINE
  5
52
330
1F
100
AcDbEntity
  8
Camada 1
370
     0
100
AcDbSpline
210
0.0
220
0.0
230
1.0
 70
    11
 71
     3
 72
    17
 73
    13
 74
     0
 42
0.0000000001
 43
0.0000000001
 12
1.0
 22
0.0
 32
0.0
 13
1.0
 23
0.0
 33
0.0
 40
0.0
 40
0.0
 40
0.0
 40
0.0
 40
1.0
 40
1.0
 40
1.0
 40
2.0
 40
2.0
 40
2.0
 40
3.0
 40
3.0
 40
3.0
 40
4.0
 40
4.0
 40
4.0
 40
4.0
 10
30.41668701171875
 20
29.0
 30
0.0
 10
26.5506591796875
 20
29.0
 30
0.0
 10
23.41668701171875
 20
32.134033203125
 30
0.0
 10
23.41668701171875
 20
36.0
 30
0.0
 10
23.41668701171875
 20
39.865966796875
 30
0.0
 10
26.5506591796875
 20
43.0
 30
0.0
 10
30.41668701171875
 20
43.0
 30
0.0
 10
34.28265380859375
 20
43.0
 30
0.0
 10
37.41668701171875
 20
39.865966796875
 30
0.0
 10
37.41668701171875
 20
36.0
 30
0.0
 10
37.41668701171875
 20
32.134033203125
 30
0.0
 10
34.28265380859375
 20
29.0
 30
0.0
 10
30.41668701171875
 20
29.0
 30
0.0
  0
HATCH
  5
53
330
1F
100
AcDbEntity
  8
Camada 1
 62
    40
420
 15902240
100
AcDbHatch
 10
0.0
 20
0.0
 30
0.0
210
0.0
220
0.0
230
1.0
  2
SOLID
 70
     1
 71
     0
 91
        2
 92
        1
 93
        1
 72
     4
 94
        3
 73
     0
 74
     1
 95
       26
 96
       22
 40
0.0
 40
0.0
 40
0.0
 40
0.0
 40
1.0
 40
1.0
 40
1.0
 40
2.0
 40
2.0
 40
2.0
 40
3.0
 40
3.0
 40
3.0
 40
4.0
 40
4.0
 40
4.0
 40
5.0
 40
5.0
 40
5.0
 40
6.0
 40
6.0
 40
6.0
 40
7.0
 40
7.0
 40
7.0
 40
7.0
 10
42.41668701171875
 20
35.88165283203125
 10
42.41668701171875
 20
42.574462890625
 10
37.0440673828125
 20
48.0
 10
30.41668701171875
 20
48.0
 10
23.78924560546875
 20
48.0
 10
18.41668701171875
 20
42.574462890625
 10
18.41668701171875
 20
35.88165283203125
 10
18.41668701171875
 20
34.04364013671875
 10
18.8218994140625
 20
32.3011474609375
 10
19.5469970703125
 20
30.7403564453125
 10
22.3978271484375
 20
24.04425048828125
 10
30.451171875
 20
12.0
 10
30.451171875
 20
12.0
 10
30.451171875
 20
12.0
 10
39.782470703125
 20
26.6114501953125
 10
41.69281005859375
 20
31.69171142578125
 10
41.69281005859375
 20
31.69171142578125
 10
41.6800537109375
 20
31.69171142578125
 10
41.6800537109375
 20
31.69171142578125
 10
42.156494140625
 20
32.9974365234375
 10
42.41668701171875
 20
34.40887451171875
 10
42.41668701171875
 20
35.88165283203125
 97
        0
 97
        0
 92
        1
 93
        1
 72
     4
 94
        3
 73
     0
 74
     1
 95
       17
 96
       13
 40
0.0
 40
0.0
 40
0.0
 40
0.0
 40
1.0
 40
1.0
 40
1.0
 40
2.0
 40
2.0
 40
2.0
 40
3.0
 40
3.0
 40
3.0
 40
4.0
 40
4.0
 40
4.0
 40
4.0
 10
30.41668701171875
 20
29.0
 10
26.5506591796875
 20
29.0
 10
23.41668701171875
 20
32.134033203125
 10
23.41668701171875
 20
36.0
 10
23.41668701171875
 20
39.865966796875
 10
26.5506591796875
 20
43.0
 10
30.41668701171875
 20
43.0
 10
34.28265380859375
 20
43.0
 10
37.41668701171875
 20
39.865966796875
 10
37.41668701171875
 20
36.0
 10
37.41668701171875
 20
32.134033203125
 10
34.28265380859375
 20
29.0
 10
30.41668701171875
 20
29.0
 97
        0
 97
        0
 75
     2
 76
     1
 98
        0
  0
MTEXT
  5
54
330
1F
100
AcDbEntity
  8
Camada 1
 62
   152
420
    24249
100
AcDbMText
 10
0.9580078125
 20
-8.2353515625
 30
0.0
 40
5.812375511169433
 41
0.0
 46
0.0
 71
     7
 72
     1
  1
\fSuiGenerisBoldItalicLight|b0|i0|c0|p34;\W1;Ponto Digital
 73
     1
 44
1.0
  0
ENDSEC
  0
SECTION
  2
OBJECTS
  0
DICTIONARY
  5
C
330
0
100
AcDbDictionary
281
     1
  3
ACAD_GROUP
350
D
  3
ACAD_LAYOUT
350
1A
  3
ACAD_MATERIAL
350
3B
  3
ACAD_MLEADERSTYLE
350
56
  3
ACAD_MLINESTYLE
350
17
  3
ACAD_PLOTSETTINGS
350
19
  3
ACAD_PLOTSTYLENAME
350
E
  3
ACAD_TABLESTYLE
350
55
  3
ACAD_VISUALSTYLE
350
2A
  0
SUN
  5
3F
330
29
100
AcDbSun
 90
        1
290
     0
 63
     7
421
 16777215
 40
1.0
291
     1
 91
  2455826
 92
 54000000
292
     0
 70
     2
 71
   256
280
     1
  0
DICTIONARY
  5
D
102
{ACAD_REACTORS
330
C
102
}
330
C
100
AcDbDictionary
281
     1
  0
DICTIONARY
  5
1A
102
{ACAD_REACTORS
330
C
102
}
330
C
100
AcDbDictionary
281
     1
  3
Layout1
350
1E
  3
Layout2
350
26
  3
Model
350
22
  0
DICTIONARY
  5
3B
102
{ACAD_REACTORS
330
C
102
}
330
C
100
AcDbDictionary
281
     1
  3
ByBlock
350
3D
  3
ByLayer
350
3C
  3
Global
350
3E
  0
DICTIONARY
  5
56
102
{ACAD_REACTORS
330
C
102
}
330
C
100
AcDbDictionary
281
     1
  0
DICTIONARY
  5
17
102
{ACAD_REACTORS
330
C
102
}
330
C
100
AcDbDictionary
281
     1
  3
Standard
350
18
  0
DICTIONARY
  5
19
102
{ACAD_REACTORS
330
C
102
}
330
C
100
AcDbDictionary
281
     1
  0
ACDBDICTIONARYWDFLT
  5
E
102
{ACAD_REACTORS
330
C
102
}
330
C
100
AcDbDictionary
281
     1
  3
Normal
350
F
100
AcDbDictionaryWithDefault
340
F
  0
DICTIONARY
  5
55
102
{ACAD_REACTORS
330
C
102
}
330
C
100
AcDbDictionary
281
     1
  0
DICTIONARY
  5
2A
102
{ACAD_REACTORS
330
C
102
}
330
C
100
AcDbDictionary
281
     1
  3
2dWireframe
350
2F
  3
3D Hidden
350
31
  3
3dWireframe
350
30
  3
Basic
350
32
  3
Brighten
350
36
  3
ColorChange
350
3A
  3
Conceptual
350
34
  3
Dim
350
35
  3
Facepattern
350
39
  3
Flat
350
2B
  3
FlatWithEdges
350
2C
  3
Gouraud
350
2D
  3
GouraudWithEdges
350
2E
  3
Linepattern
350
38
  3
Realistic
350
33
  3
Thicken
350
37
  0
LAYOUT
  5
1E
102
{ACAD_REACTORS
330
1A
102
}
330
1A
100
AcDbPlotSettings
  1

  2
none_device
  4

  6

 40
0.0
 41
0.0
 42
0.0
 43
0.0
 44
0.0
 45
0.0
 46
0.0
 47
0.0
 48
0.0
 49
0.0
140
0.0
141
0.0
142
1.0
143
1.0
 70
   688
 72
     0
 73
     0
 74
     5
  7

 75
    16
 76
     0
 77
     2
 78
   300
147
1.0
148
0.0
149
0.0
100
AcDbLayout
  1
Layout1
 70
     1
 71
     1
 10
0.0
 20
0.0
 11
12.0
 21
9.0
 12
0.0
 22
0.0
 32
0.0
 14
1.000000000000000E+20
 24
1.000000000000000E+20
 34
1.000000000000000E+20
 15
-1.000000000000000E+20
 25
-1.000000000000000E+20
 35
-1.000000000000000E+20
146
0.0
 13
0.0
 23
0.0
 33
0.0
 16
1.0
 26
0.0
 36
0.0
 17
0.0
 27
1.0
 37
0.0
 76
     0
330
1B
  0
LAYOUT
  5
26
102
{ACAD_REACTORS
330
1A
102
}
330
1A
100
AcDbPlotSettings
  1

  2
none_device
  4

  6

 40
0.0
 41
0.0
 42
0.0
 43
0.0
 44
0.0
 45
0.0
 46
0.0
 47
0.0
 48
0.0
 49
0.0
140
0.0
141
0.0
142
1.0
143
1.0
 70
   688
 72
     0
 73
     0
 74
     5
  7

 75
    16
 76
     0
 77
     2
 78
   300
147
1.0
148
0.0
149
0.0
100
AcDbLayout
  1
Layout2
 70
     1
 71
     2
 10
0.0
 20
0.0
 11
0.0
 21
0.0
 12
0.0
 22
0.0
 32
0.0
 14
0.0
 24
0.0
 34
0.0
 15
0.0
 25
0.0
 35
0.0
146
0.0
 13
0.0
 23
0.0
 33
0.0
 16
1.0
 26
0.0
 36
0.0
 17
0.0
 27
1.0
 37
0.0
 76
     0
330
23
  0
LAYOUT
  5
22
102
{ACAD_REACTORS
330
1A
102
}
330
1A
100
AcDbPlotSettings
  1

  2
none_device
  4

  6

 40
0.0
 41
0.0
 42
0.0
 43
0.0
 44
0.0
 45
0.0
 46
0.0
 47
0.0
 48
0.0
 49
0.0
140
0.0
141
0.0
142
1.0
143
1.0
 70
  1712
 72
     0
 73
     0
 74
     0
  7

 75
     0
 76
     0
 77
     2
 78
   300
147
1.0
148
0.0
149
0.0
100
AcDbLayout
  1
Model
 70
     1
 71
     0
 10
0.0
 20
0.0
 11
12.0
 21
9.0
 12
0.0
 22
0.0
 32
0.0
 14
1.000000000000000E+20
 24
1.000000000000000E+20
 34
1.000000000000000E+20
 15
-1.000000000000000E+20
 25
-1.000000000000000E+20
 35
-1.000000000000000E+20
146
0.0
 13
0.0
 23
0.0
 33
0.0
 16
1.0
 26
0.0
 36
0.0
 17
0.0
 27
1.0
 37
0.0
 76
     0
330
1F
331
29
  0
MATERIAL
  5
3D
102
{ACAD_REACTORS
330
3B
102
}
330
3B
100
AcDbMaterial
  1
ByBlock
 72
     1
 94
      127
  0
MATERIAL
  5
3C
102
{ACAD_REACTORS
330
3B
102
}
330
3B
100
AcDbMaterial
  1
ByLayer
 72
     1
 94
      127
  0
MATERIAL
  5
3E
102
{ACAD_REACTORS
330
3B
102
}
330
3B
100
AcDbMaterial
  1
Global
 72
     1
 94
      127
  0
MLINESTYLE
  5
18
102
{ACAD_REACTORS
330
17
102
}
330
17
100
AcDbMlineStyle
  2
Standard
 70
     0
  3

 62
   256
 51
90.0
 52
90.0
 71
     2
 49
0.5
 62
   256
  6
BYLAYER
 49
-0.5
 62
   256
  6
BYLAYER
  0
ACDBPLACEHOLDER
  5
F
102
{ACAD_REACTORS
330
E
102
}
330
E
  0
VISUALSTYLE
  5
2F
102
{ACAD_REACTORS
330
2A
102
}
330
2A
100
AcDbVisualStyle
  2
2dWireframe
 70
     4
177
     2
291
     0
 71
     0
176
     1
 72
     2
176
     1
 73
     0
176
     1
 90
        0
176
     1
 40
-0.6
176
     1
 41
-30.0
176
     1
 62
     5
 63
     7
421
 16777215
176
     1
 74
     1
176
     1
 91
        4
176
     1
 64
     7
176
     1
 65
   257
176
     1
 75
     1
176
     1
175
     1
176
     1
 42
1.0
176
     1
 92
        0
176
     1
 66
   257
176
     1
 43
1.0
176
     1
 76
     1
176
     1
 77
     6
176
     1
 78
     2
176
     1
 67
     7
176
     1
 79
     5
176
     1
170
     0
176
     1
171
     0
176
     1
290
     0
176
     1
 93
        1
176
     1
 44
0.0
176
     1
173
     0
176
     1
  0
VISUALSTYLE
  5
31
102
{ACAD_REACTORS
330
2A
102
}
330
2A
100
AcDbVisualStyle
  2
3D Hidden
 70
     6
177
     2
291
     0
 71
     1
176
     1
 72
     2
176
     1
 73
     2
176
     1
 90
        0
176
     1
 40
-0.6
176
     1
 41
-30.0
176
     1
 62
     5
 63
     7
421
 16777215
176
     1
 74
     2
176
     1
 91
        2
176
     1
 64
     7
176
     1
 65
   257
176
     1
 75
     2
176
     1
175
     1
176
     1
 42
40.0
176
     1
 92
        0
176
     1
 66
   257
176
     1
 43
1.0
176
     1
 76
     1
176
     1
 77
     6
176
     1
 78
     2
176
     1
 67
     7
176
     1
 79
     3
176
     1
170
     0
176
     1
171
     0
176
     1
290
     0
176
     1
 93
        1
176
     1
 44
0.0
176
     1
173
     0
176
     1
  0
VISUALSTYLE
  5
30
102
{ACAD_REACTORS
330
2A
102
}
330
2A
100
AcDbVisualStyle
  2
3dWireframe
 70
     5
177
     2
291
     0
 71
     0
176
     1
 72
     2
176
     1
 73
     0
176
     1
 90
        0
176
     1
 40
-0.6
176
     1
 41
-30.0
176
     1
 62
     5
 63
     7
421
 16777215
176
     1
 74
     1
176
     1
 91
        4
176
     1
 64
     7
176
     1
 65
   257
176
     1
 75
     1
176
     1
175
     1
176
     1
 42
1.0
176
     1
 92
        0
176
     1
 66
   257
176
     1
 43
1.0
176
     1
 76
     1
176
     1
 77
     6
176
     1
 78
     2
176
     1
 67
     7
176
     1
 79
     5
176
     1
170
     0
176
     1
171
     0
176
     1
290
     0
176
     1
 93
        1
176
     1
 44
0.0
176
     1
173
     0
176
     1
  0
VISUALSTYLE
  5
32
102
{ACAD_REACTORS
330
2A
102
}
330
2A
100
AcDbVisualStyle
  2
Basic
 70
     7
177
     2
291
     1
 71
     1
176
     1
 72
     0
176
     1
 73
     1
176
     1
 90
        0
176
     1
 40
-0.6
176
     1
 41
-30.0
176
     1
 62
     5
 63
     7
421
 16777215
176
     1
 74
     0
176
     1
 91
        4
176
     1
 64
     7
176
     1
 65
   257
176
     1
 75
     1
176
     1
175
     1
176
     1
 42
1.0
176
     1
 92
        8
176
     1
 66
     7
176
     1
 43
1.0
176
     1
 76
     1
176
     1
 77
     6
176
     1
 78
     2
176
     1
 67
     7
176
     1
 79
     5
176
     1
170
     0
176
     1
171
     0
176
     1
290
     0
176
     1
 93
        1
176
     1
 44
0.0
176
     1
173
     0
176
     1
  0
VISUALSTYLE
  5
36
102
{ACAD_REACTORS
330
2A
102
}
330
2A
100
AcDbVisualStyle
  2
Brighten
 70
    12
177
     2
291
     1
 71
     2
176
     1
 72
     2
176
     1
 73
     0
176
     1
 90
        0
176
     1
 40
-0.6
176
     1
 41
-30.0
176
     1
 62
     5
 63
     7
421
 16777215
176
     1
 74
     1
176
     1
 91
        4
176
     1
 64
     7
176
     1
 65
   257
176
     1
 75
     1
176
     1
175
     1
176
     1
 42
1.0
176
     1
 92
        8
176
     1
 66
     7
176
     1
 43
1.0
176
     1
 76
     1
176
     1
 77
     6
176
     1
 78
     2
176
     1
 67
     7
176
     1
 79
     5
176
     1
170
     0
176
     1
171
     0
176
     1
290
     0
176
     1
 93
        1
176
     1
 44
50.0
176
     1
173
     0
176
     1
  0
VISUALSTYLE
  5
3A
102
{ACAD_REACTORS
330
2A
102
}
330
2A
100
AcDbVisualStyle
  2
ColorChange
 70
    16
177
     2
291
     1
 71
     2
176
     1
 72
     2
176
     1
 73
     3
176
     1
 90
        0
176
     1
 40
-0.6
176
     1
 41
-30.0
176
     1
 62
     5
 63
     8
421
  8421504
176
     1
 74
     1
176
     1
 91
        4
176
     1
 64
     7
176
     1
 65
   257
176
     1
 75
     1
176
     1
175
     1
176
     1
 42
1.0
176
     1
 92
        8
176
     1
 66
     8
424
  8421504
176
     1
 43
1.0
176
     1
 76
     1
176
     1
 77
     6
176
     1
 78
     2
176
     1
 67
     7
176
     1
 79
     5
176
     1
170
     0
176
     1
171
     0
176
     1
290
     0
176
     1
 93
        1
176
     1
 44
0.0
176
     1
173
     0
176
     1
  0
VISUALSTYLE
  5
34
102
{ACAD_REACTORS
330
2A
102
}
330
2A
100
AcDbVisualStyle
  2
Conceptual
 70
     9
177
     2
291
     0
 71
     3
176
     1
 72
     2
176
     1
 73
     0
176
     1
 90
        0
176
     1
 40
-0.6
176
     1
 41
-30.0
176
     1
 62
     5
 63
     7
421
 16777215
176
     1
 74
     2
176
     1
 91
        2
176
     1
 64
     7
176
     1
 65
   257
176
     1
 75
     1
176
     1
175
     1
176
     1
 42
40.0
176
     1
 92
        8
176
     1
 66
     7
176
     1
 43
1.0
176
     1
 76
     1
176
     1
 77
     6
176
     1
 78
     2
176
     1
 67
     7
176
     1
 79
     3
176
     1
170
     0
176
     1
171
     0
176
     1
290
     0
176
     1
 93
        1
176
     1
 44
0.0
176
     1
173
     0
176
     1
  0
VISUALSTYLE
  5
35
102
{ACAD_REACTORS
330
2A
102
}
330
2A
100
AcDbVisualStyle
  2
Dim
 70
    11
177
     2
291
     1
 71
     2
176
     1
 72
     2
176
     1
 73
     0
176
     1
 90
        0
176
     1
 40
-0.6
176
     1
 41
-30.0
176
     1
 62
     5
 63
     7
421
 16777215
176
     1
 74
     1
176
     1
 91
        4
176
     1
 64
     7
176
     1
 65
   257
176
     1
 75
     1
176
     1
175
     1
176
     1
 42
1.0
176
     1
 92
        8
176
     1
 66
     7
176
     1
 43
1.0
176
     1
 76
     1
176
     1
 77
     6
176
     1
 78
     2
176
     1
 67
     7
176
     1
 79
     5
176
     1
170
     0
176
     1
171
     0
176
     1
290
     0
176
     1
 93
        1
176
     1
 44
-50.0
176
     1
173
     0
176
     1
  0
VISUALSTYLE
  5
39
102
{ACAD_REACTORS
330
2A
102
}
330
2A
100
AcDbVisualStyle
  2
Facepattern
 70
    15
177
     2
291
     1
 71
     2
176
     1
 72
     2
176
     1
 73
     0
176
     1
 90
        0
176
     1
 40
-0.6
176
     1
 41
-30.0
176
     1
 62
     5
 63
     7
421
 16777215
176
     1
 74
     1
176
     1
 91
        4
176
     1
 64
     7
176
     1
 65
   257
176
     1
 75
     1
176
     1
175
     1
176
     1
 42
1.0
176
     1
 92
        8
176
     1
 66
     7
176
     1
 43
1.0
176
     1
 76
     1
176
     1
 77
     6
176
     1
 78
     2
176
     1
 67
     7
176
     1
 79
     5
176
     1
170
     0
176
     1
171
     0
176
     1
290
     0
176
     1
 93
        1
176
     1
 44
0.0
176
     1
173
     0
176
     1
  0
VISUALSTYLE
  5
2B
102
{ACAD_REACTORS
330
2A
102
}
330
2A
100
AcDbVisualStyle
  2
Flat
 70
     0
177
     2
291
     1
 71
     2
176
     1
 72
     1
176
     1
 73
     1
176
     1
 90
        2
176
     1
 40
-0.6
176
     1
 41
30.0
176
     1
 62
     5
 63
     7
421
 16777215
176
     1
 74
     0
176
     1
 91
        4
176
     1
 64
     7
176
     1
 65
   257
176
     1
 75
     1
176
     1
175
     1
176
     1
 42
1.0
176
     1
 92
        8
176
     1
 66
     7
176
     1
 43
1.0
176
     1
 76
     1
176
     1
 77
     6
176
     1
 78
     2
176
     1
 67
     7
176
     1
 79
     5
176
     1
170
     0
176
     1
171
     0
176
     1
290
     0
176
     1
 93
       13
176
     1
 44
0.0
176
     1
173
     0
176
     1
  0
VISUALSTYLE
  5
2C
102
{ACAD_REACTORS
330
2A
102
}
330
2A
100
AcDbVisualStyle
  2
FlatWithEdges
 70
     1
177
     2
291
     1
 71
     2
176
     1
 72
     1
176
     1
 73
     1
176
     1
 90
        2
176
     1
 40
-0.6
176
     1
 41
30.0
176
     1
 62
     5
 63
     7
421
 16777215
176
     1
 74
     1
176
     1
 91
        4
176
     1
 64
     7
176
     1
 65
   257
176
     1
 75
     1
176
     1
175
     1
176
     1
 42
1.0
176
     1
 92
        0
176
     1
 66
   257
176
     1
 43
1.0
176
     1
 76
     1
176
     1
 77
     6
176
     1
 78
     2
176
     1
 67
     7
176
     1
 79
     5
176
     1
170
     0
176
     1
171
     0
176
     1
290
     0
176
     1
 93
       13
176
     1
 44
0.0
176
     1
173
     0
176
     1
  0
VISUALSTYLE
  5
2D
102
{ACAD_REACTORS
330
2A
102
}
330
2A
100
AcDbVisualStyle
  2
Gouraud
 70
     2
177
     2
291
     1
 71
     2
176
     1
 72
     2
176
     1
 73
     1
176
     1
 90
        2
176
     1
 40
-0.6
176
     1
 41
30.0
176
     1
 62
     5
 63
     7
421
 16777215
176
     1
 74
     0
176
     1
 91
        4
176
     1
 64
     7
176
     1
 65
   257
176
     1
 75
     1
176
     1
175
     1
176
     1
 42
1.0
176
     1
 92
        0
176
     1
 66
     7
176
     1
 43
1.0
176
     1
 76
     1
176
     1
 77
     6
176
     1
 78
     2
176
     1
 67
     7
176
     1
 79
     5
176
     1
170
     0
176
     1
171
     0
176
     1
290
     0
176
     1
 93
       13
176
     1
 44
0.0
176
     1
173
     0
176
     1
  0
VISUALSTYLE
  5
2E
102
{ACAD_REACTORS
330
2A
102
}
330
2A
100
AcDbVisualStyle
  2
GouraudWithEdges
 70
     3
177
     2
291
     1
 71
     2
176
     1
 72
     2
176
     1
 73
     1
176
     1
 90
        2
176
     1
 40
-0.6
176
     1
 41
30.0
176
     1
 62
     5
 63
     7
421
 16777215
176
     1
 74
     1
176
     1
 91
        4
176
     1
 64
     7
176
     1
 65
   257
176
     1
 75
     1
176
     1
175
     1
176
     1
 42
1.0
176
     1
 92
        0
176
     1
 66
   257
176
     1
 43
1.0
176
     1
 76
     1
176
     1
 77
     6
176
     1
 78
     2
176
     1
 67
     7
176
     1
 79
     5
176
     1
170
     0
176
     1
171
     0
176
     1
290
     0
176
     1
 93
       13
176
     1
 44
0.0
176
     1
173
     0
176
     1
  0
VISUALSTYLE
  5
38
102
{ACAD_REACTORS
330
2A
102
}
330
2A
100
AcDbVisualStyle
  2
Linepattern
 70
    14
177
     2
291
     1
 71
     2
176
     1
 72
     2
176
     1
 73
     0
176
     1
 90
        0
176
     1
 40
-0.6
176
     1
 41
-30.0
176
     1
 62
     5
 63
     7
421
 16777215
176
     1
 74
     1
176
     1
 91
        4
176
     1
 64
     7
176
     1
 65
   257
176
     1
 75
     7
176
     1
175
     7
176
     1
 42
1.0
176
     1
 92
        8
176
     1
 66
     7
176
     1
 43
1.0
176
     1
 76
     1
176
     1
 77
     6
176
     1
 78
     2
176
     1
 67
     7
176
     1
 79
     5
176
     1
170
     0
176
     1
171
     0
176
     1
290
     0
176
     1
 93
        1
176
     1
 44
0.0
176
     1
173
     0
176
     1
  0
VISUALSTYLE
  5
33
102
{ACAD_REACTORS
330
2A
102
}
330
2A
100
AcDbVisualStyle
  2
Realistic
 70
     8
177
     2
291
     0
 71
     2
176
     1
 72
     2
176
     1
 73
     0
176
     1
 90
        0
176
     1
 40
-0.6
176
     1
 41
-30.0
176
     1
 62
     5
 63
     7
421
 16777215
176
     1
 74
     1
176
     1
 91
        0
176
     1
 64
     7
176
     1
 65
   257
176
     1
 75
     1
176
     1
175
     1
176
     1
 42
1.0
176
     1
 92
        8
176
     1
 66
     8
424
  7895160
176
     1
 43
1.0
176
     1
 76
     1
176
     1
 77
     6
176
     1
 78
     2
176
     1
 67
     7
176
     1
 79
     5
176
     1
170
     0
176
     1
171
     0
176
     1
290
     0
176
     1
 93
       13
176
     1
 44
0.0
176
     1
173
     0
176
     1
  0
VISUALSTYLE
  5
37
102
{ACAD_REACTORS
330
2A
102
}
330
2A
100
AcDbVisualStyle
  2
Thicken
 70
    13
177
     2
291
     1
 71
     2
176
     1
 72
     2
176
     1
 73
     0
176
     1
 90
        0
176
     1
 40
-0.6
176
     1
 41
-30.0
176
     1
 62
     5
 63
     7
421
 16777215
176
     1
 74
     1
176
     1
 91
        4
176
     1
 64
     7
176
     1
 65
   257
176
     1
 75
     1
176
     1
175
     1
176
     1
 42
1.0
176
     1
 92
       12
176
     1
 66
     7
176
     1
 43
1.0
176
     1
 76
     1
176
     1
 77
     6
176
     1
 78
     2
176
     1
 67
     7
176
     1
 79
     5
176
     1
170
     0
176
     1
171
     0
176
     1
290
     0
176
     1
 93
        1
176
     1
 44
0.0
176
     1
173
     0
176
     1
  0
ENDSEC
  0
EOF
